<svg width="107" height="89" viewBox="0 0 107 89" fill="none" xmlns="http://www.w3.org/2000/svg">
<path d="M30.3647 36.0894L74.2203 36.0894C75.2972 36.0894 76.1703 35.2164 76.1703 34.1394V2.03043C76.1703 0.95348 75.2972 0.0804367 74.2203 0.0804367L30.3647 0.0804367C29.2878 0.0804367 28.4147 0.95348 28.4147 2.03043L28.4147 34.1394C28.4147 35.2164 29.2878 36.0894 30.3647 36.0894Z" fill="white"/>
<path d="M74.2203 36.1697H30.3648C29.8265 36.1691 29.3105 35.955 28.9298 35.5744C28.5492 35.1938 28.3351 34.6777 28.3345 34.1394V2.03038C28.3351 1.49207 28.5492 0.97598 28.9298 0.595339C29.3105 0.214699 29.8265 0.000593859 30.3648 0L74.2203 0C74.7587 0.000593811 75.2748 0.214695 75.6554 0.595333C76.0361 0.975971 76.2502 1.49206 76.2508 2.03038V34.1394C76.2502 34.6777 76.0361 35.1938 75.6554 35.5744C75.2748 35.955 74.7587 36.1691 74.2203 36.1697ZM30.3648 0.16076C29.8692 0.161328 29.394 0.358487 29.0435 0.708985C28.693 1.05948 28.4958 1.5347 28.4952 2.03038V34.1394C28.4958 34.635 28.693 35.1103 29.0435 35.4608C29.394 35.8113 29.8692 36.0084 30.3648 36.009H74.2203C74.716 36.0084 75.1912 35.8113 75.5418 35.4608C75.8923 35.1103 76.0895 34.6351 76.09 34.1394V2.03038C76.0895 1.53469 75.8923 1.05947 75.5418 0.708979C75.1912 0.358484 74.716 0.161328 74.2203 0.16076H30.3648Z" fill="#292A2E"/>
<path d="M34.0975 3.10535L30.9631 3.40258C30.6394 3.43327 30.4018 3.7206 30.4325 4.04433L30.7298 7.17875C30.7605 7.50249 31.0478 7.74004 31.3715 7.70934L34.5059 7.41211C34.8297 7.38141 35.0672 7.09409 35.0365 6.77035L34.7393 3.63594C34.7086 3.3122 34.4213 3.07465 34.0975 3.10535Z" fill="#292A2E"/>
<path d="M43.0236 9.90471L39.8932 9.5679C39.5698 9.53311 39.2795 9.76702 39.2448 10.0903L38.9079 13.2207C38.8732 13.5441 39.1071 13.8344 39.4304 13.8692L42.5608 14.206C42.8841 14.2408 43.1744 14.0069 43.2092 13.6835L43.546 10.5531C43.5808 10.2298 43.3469 9.9395 43.0236 9.90471Z" fill="white"/>
<path d="M42.6251 14.3071C42.6001 14.3071 42.5752 14.3058 42.5504 14.3031L39.4201 13.9663C39.2392 13.9466 39.0735 13.856 38.9593 13.7143C38.8451 13.5726 38.7918 13.3914 38.8111 13.2104L39.148 10.0802C39.1576 9.99054 39.1848 9.90368 39.228 9.82456C39.2712 9.74544 39.3295 9.67561 39.3997 9.61904C39.4699 9.56248 39.5506 9.5203 39.6371 9.49492C39.7236 9.46953 39.8142 9.46143 39.9039 9.47108L43.0342 9.80791C43.2152 9.82743 43.381 9.91803 43.4952 10.0598C43.6094 10.2015 43.6626 10.3828 43.6432 10.5638L43.3064 13.6941C43.2883 13.8622 43.2088 14.0178 43.0831 14.1309C42.9574 14.2441 42.7942 14.3068 42.6251 14.3071ZM42.5712 14.1091C42.7008 14.1231 42.8305 14.085 42.932 14.0032C43.0335 13.9215 43.0983 13.8028 43.1122 13.6733L43.4492 10.5429C43.4631 10.4134 43.425 10.2836 43.3432 10.1821C43.2615 10.0807 43.1428 10.0158 43.0132 10.0018L39.8828 9.6651C39.8186 9.6582 39.7538 9.664 39.6919 9.68217C39.6299 9.70034 39.5722 9.73053 39.522 9.77102C39.4718 9.8115 39.43 9.86148 39.3991 9.91811C39.3681 9.97473 39.3487 10.0369 39.3418 10.101L39.0049 13.2313C38.9912 13.3608 39.0294 13.4905 39.1111 13.592C39.1929 13.6934 39.3115 13.7583 39.441 13.7724L42.5712 14.1091Z" fill="#292A2E"/>
<path d="M56.914 14.8679C56.898 14.868 56.8822 14.864 56.8681 14.8565C56.854 14.849 56.8419 14.8381 56.833 14.8248C54.8467 11.8705 51.8336 11.3326 49.655 11.4009C48.1817 11.457 46.7271 11.7503 45.3473 12.2696C45.3235 12.2793 45.2968 12.2792 45.273 12.2692C45.2493 12.2593 45.2305 12.2404 45.2206 12.2166C45.2107 12.1929 45.2106 12.1662 45.2204 12.1424C45.2301 12.1186 45.2488 12.0995 45.2725 12.0895C46.6743 11.5616 48.152 11.2632 49.6488 11.2059C51.8758 11.1358 54.9588 11.6876 56.9949 14.7159C57.0048 14.7305 57.0105 14.7476 57.0114 14.7653C57.0123 14.7829 57.0084 14.8005 57.0001 14.8161C56.9918 14.8317 56.9794 14.8448 56.9642 14.8539C56.9491 14.863 56.9317 14.8678 56.914 14.8678V14.8679Z" fill="#292A2E"/>
<path d="M56.9505 14.908C56.9415 14.9079 56.9325 14.9067 56.9238 14.9043L54.9251 14.3398C54.9002 14.3327 54.8791 14.3161 54.8664 14.2935C54.8538 14.271 54.8506 14.2443 54.8577 14.2194C54.8647 14.1945 54.8813 14.1734 54.9039 14.1607C54.9265 14.1481 54.9531 14.1449 54.978 14.152L56.883 14.6899L57.4209 12.7849C57.4285 12.7606 57.4452 12.7402 57.4676 12.728C57.4899 12.7158 57.5162 12.7129 57.5407 12.7198C57.5652 12.7268 57.586 12.743 57.5987 12.7651C57.6114 12.7872 57.615 12.8133 57.6086 12.838L57.0442 14.8368C57.0385 14.8572 57.0262 14.8753 57.0093 14.8881C56.9924 14.901 56.9717 14.9079 56.9505 14.908Z" fill="#292A2E"/>
<path d="M60.0852 15.783L56.9508 16.0802C56.6271 16.1109 56.3895 16.3982 56.4202 16.7219L56.7174 19.8564C56.7481 20.1801 57.0355 20.4176 57.3592 20.3869L60.4936 20.0897C60.8173 20.059 61.0549 19.7717 61.0242 19.448L60.727 16.3135C60.6963 15.9898 60.409 15.7523 60.0852 15.783Z" fill="#00B998"/>
<path d="M70.3292 6.14697L67.1872 5.94495C66.8627 5.92408 66.5827 6.17024 66.5618 6.49476L66.3598 9.63674C66.3389 9.96126 66.5851 10.2412 66.9096 10.2621L70.0516 10.4641C70.3761 10.485 70.6561 10.2389 70.677 9.91433L70.879 6.77235C70.8999 6.44783 70.6537 6.16784 70.3292 6.14697Z" fill="#292A2E"/>
<path d="M72.1046 16.4003L68.9742 16.0634C68.6509 16.0287 68.3606 16.2626 68.3258 16.5859L67.989 19.7163C67.9542 20.0396 68.1881 20.3299 68.5114 20.3647L71.6418 20.7015C71.9652 20.7363 72.2555 20.5024 72.2903 20.1791L72.6271 17.0487C72.6619 16.7253 72.428 16.435 72.1046 16.4003Z" fill="#0CBC8B"/>
<path d="M54.9205 26.5977L51.7861 26.8949C51.4624 26.9256 51.2248 27.2129 51.2555 27.5367L51.5528 30.6711C51.5835 30.9948 51.8708 31.2324 52.1945 31.2017L55.3289 30.9045C55.6527 30.8738 55.8902 30.5864 55.8595 30.2627L55.5623 27.1283C55.5316 26.8045 55.2443 26.567 54.9205 26.5977Z" fill="white"/>
<path d="M52.1387 31.3019C51.968 31.3015 51.8036 31.2377 51.6774 31.1228C51.5511 31.0079 51.4722 30.8502 51.4559 30.6803L51.1586 27.5459C51.1417 27.3647 51.1973 27.1842 51.3132 27.0439C51.4292 26.9037 51.596 26.8152 51.7772 26.7978L54.9114 26.5005C55.0012 26.492 55.0917 26.5013 55.1779 26.5277C55.264 26.5542 55.3441 26.5974 55.4136 26.6549C55.4831 26.7123 55.5405 26.7829 55.5827 26.8625C55.6249 26.9422 55.651 27.0294 55.6595 27.1191L55.9568 30.2534C55.9737 30.4346 55.9181 30.6151 55.8022 30.7554C55.6863 30.8956 55.5194 30.9841 55.3383 31.0015L52.2041 31.2988C52.182 31.3008 52.1602 31.3019 52.1387 31.3019ZM54.9774 26.6925C54.9618 26.6925 54.946 26.6933 54.9302 26.6948L51.7955 26.9917C51.6658 27.0041 51.5464 27.0675 51.4633 27.1679C51.3803 27.2683 51.3405 27.3975 51.3527 27.5272L51.6499 30.6616C51.6625 30.7912 51.7259 30.9105 51.8262 30.9935C51.9266 31.0765 52.0558 31.1163 52.1854 31.1042L55.3198 30.807C55.4494 30.7946 55.5689 30.7312 55.6519 30.6308C55.7349 30.5304 55.7747 30.4012 55.7625 30.2715L55.4653 27.1371C55.4537 27.0156 55.3973 26.9027 55.307 26.8204C55.2167 26.7382 55.0991 26.6925 54.977 26.6922L54.9774 26.6925Z" fill="#292A2E"/>
<path d="M34.7102 25.5376L31.5758 25.8349C31.2521 25.8656 31.0145 26.1529 31.0452 26.4766L31.3424 29.611C31.3731 29.9348 31.6605 30.1723 31.9842 30.1416L35.1186 29.8444C35.4423 29.8137 35.6799 29.5264 35.6492 29.2026L35.352 26.0682C35.3213 25.7445 35.0339 25.5069 34.7102 25.5376Z" fill="#00B998"/>
<path d="M59.7874 14.1861C59.7837 14.1861 59.7799 14.1859 59.7762 14.1855C59.7635 14.184 59.7512 14.18 59.74 14.1738C59.7288 14.1676 59.7189 14.1592 59.7109 14.1492C59.703 14.1392 59.6971 14.1276 59.6936 14.1153C59.69 14.103 59.689 14.0901 59.6905 14.0774C59.837 13.0925 60.1415 12.1378 60.5922 11.2499C61.5677 9.35916 63.0974 8.27471 65.0151 8.11317C65.0408 8.111 65.0664 8.11915 65.0862 8.13585C65.106 8.15254 65.1183 8.1764 65.1205 8.20218C65.1226 8.22796 65.1145 8.25355 65.0978 8.27332C65.0811 8.29308 65.0572 8.30541 65.0314 8.30758C60.5589 8.68373 59.8906 14.0456 59.8842 14.0997C59.8814 14.1235 59.8701 14.1454 59.8522 14.1613C59.8344 14.1772 59.8113 14.186 59.7874 14.1861Z" fill="#292A2E"/>
<path d="M64.0874 9.27423C64.0681 9.27425 64.0492 9.26855 64.0332 9.25785C64.0171 9.24715 64.0046 9.23193 63.9972 9.21412C63.9898 9.19631 63.9878 9.17671 63.9916 9.15779C63.9953 9.13886 64.0046 9.12147 64.0182 9.10782L64.9195 8.20247L64.0143 7.30112C64.005 7.29214 63.9975 7.28139 63.9924 7.2695C63.9872 7.25761 63.9845 7.24482 63.9844 7.23187C63.9842 7.21892 63.9867 7.20607 63.9916 7.19407C63.9964 7.18207 64.0037 7.17117 64.0128 7.16199C64.0219 7.15281 64.0328 7.14554 64.0448 7.14061C64.0568 7.13568 64.0696 7.13319 64.0826 7.13327C64.0955 7.13336 64.1083 7.13602 64.1202 7.1411C64.1321 7.14619 64.1429 7.1536 64.1519 7.16289L65.1263 8.13311C65.1445 8.1514 65.1548 8.17621 65.1548 8.20208C65.1548 8.22794 65.1445 8.25275 65.1263 8.27104L64.1561 9.24546C64.1471 9.25455 64.1364 9.26178 64.1246 9.26672C64.1128 9.27166 64.1002 9.27421 64.0874 9.27423Z" fill="#292A2E"/>
<path d="M53.4458 25.1406C53.4249 25.1406 53.4046 25.1339 53.3878 25.1215C53.371 25.1091 53.3587 25.0916 53.3525 25.0716C53.338 25.0239 51.9351 20.2864 55.5669 18.3213C55.5782 18.3149 55.5906 18.3108 55.6035 18.3093C55.6164 18.3078 55.6295 18.3088 55.6419 18.3124C55.6544 18.316 55.666 18.322 55.6761 18.3302C55.6862 18.3383 55.6946 18.3484 55.7008 18.3598C55.7069 18.3712 55.7108 18.3837 55.712 18.3966C55.7133 18.4095 55.712 18.4226 55.7082 18.435C55.7043 18.4473 55.6981 18.4589 55.6897 18.4688C55.6814 18.4787 55.6712 18.4869 55.6597 18.4929C52.1695 20.3811 53.5253 24.9679 53.5394 25.0141C53.5438 25.0287 53.5448 25.0441 53.5422 25.0591C53.5397 25.0742 53.5336 25.0884 53.5245 25.1007C53.5155 25.1129 53.5036 25.1229 53.49 25.1298C53.4764 25.1366 53.4614 25.1402 53.4461 25.1402L53.4458 25.1406Z" fill="#292A2E"/>
<path d="M55.1959 19.6225C55.18 19.6225 55.1644 19.6186 55.1504 19.6112C55.1363 19.6038 55.1243 19.5931 55.1154 19.58C55.1064 19.5669 55.1008 19.5518 55.099 19.5361C55.0972 19.5203 55.0993 19.5044 55.105 19.4896L55.512 18.4442L54.4666 18.0368C54.4429 18.0271 54.424 18.0085 54.4139 17.985C54.4038 17.9615 54.4034 17.935 54.4126 17.9112C54.4219 17.8874 54.4401 17.8681 54.4634 17.8576C54.4867 17.8471 54.5132 17.8461 54.5372 17.855L55.6737 18.2972C55.6856 18.3019 55.6965 18.3088 55.7057 18.3177C55.715 18.3266 55.7224 18.3372 55.7276 18.3489C55.7327 18.3606 55.7355 18.3733 55.7358 18.3861C55.7361 18.3989 55.7338 18.4116 55.7292 18.4236L55.2868 19.5599C55.2797 19.5783 55.2673 19.5941 55.251 19.6053C55.2348 19.6165 55.2156 19.6225 55.1959 19.6225Z" fill="#292A2E"/>
<path d="M41.3133 9.02737C41.2874 9.02737 41.2626 9.0171 41.2443 8.9988C41.226 8.98051 41.2158 8.9557 41.2158 8.92982C41.2158 7.44796 40.7784 6.31679 39.9156 5.56781C38.3841 4.23852 36.0021 4.55897 35.9782 4.56238C35.9526 4.56604 35.9265 4.55938 35.9058 4.54385C35.8851 4.52833 35.8715 4.50522 35.8678 4.47961C35.8641 4.454 35.8708 4.42798 35.8863 4.40728C35.9019 4.38658 35.925 4.37289 35.9506 4.36923C36.0515 4.3547 38.443 4.03211 40.0426 5.41964C40.9506 6.20734 41.4109 7.38836 41.4109 8.92982C41.4109 8.94263 41.4083 8.95532 41.4034 8.96715C41.3985 8.97899 41.3913 8.98974 41.3823 8.9988C41.3732 9.00786 41.3625 9.01505 41.3506 9.01995C41.3388 9.02485 41.3261 9.02737 41.3133 9.02737Z" fill="#292A2E"/>
<path d="M41.3179 9.06237C41.3149 9.06237 41.3118 9.06237 41.3087 9.06237C41.296 9.06117 41.2836 9.05747 41.2722 9.05148C41.2609 9.04549 41.2509 9.03732 41.2427 9.02745L40.3654 7.96817C40.3489 7.94824 40.341 7.92256 40.3434 7.89679C40.3459 7.87103 40.3584 7.84728 40.3784 7.83077C40.3983 7.81427 40.424 7.80635 40.4497 7.80878C40.4755 7.8112 40.4993 7.82376 40.5158 7.8437L41.3312 8.82825L42.3152 8.01353C42.3251 8.00536 42.3365 7.99922 42.3487 7.99545C42.361 7.99169 42.3738 7.99037 42.3866 7.99157C42.3994 7.99278 42.4117 7.99648 42.4231 8.00247C42.4344 8.00847 42.4444 8.01663 42.4526 8.0265C42.4608 8.03637 42.4669 8.04776 42.4707 8.06C42.4744 8.07224 42.4758 8.08511 42.4745 8.09786C42.4733 8.11062 42.4696 8.12301 42.4636 8.13433C42.4576 8.14565 42.4495 8.15569 42.4396 8.16385L41.3799 9.04033C41.3624 9.05464 41.3405 9.06244 41.3179 9.06237Z" fill="#292A2E"/>
<path d="M43.4747 19.7886H40.3262C40.001 19.7886 39.7374 20.0522 39.7374 20.3774V23.5259C39.7374 23.851 40.001 24.1147 40.3262 24.1147H43.4747C43.7999 24.1147 44.0635 23.851 44.0635 23.5259V20.3774C44.0635 20.0522 43.7999 19.7886 43.4747 19.7886Z" fill="#0CBC8B"/>
<path d="M51.4934 25.5426C51.4717 25.5425 51.4506 25.5353 51.4335 25.5219C51.4164 25.5085 51.4043 25.4898 51.399 25.4687C50.3114 21.1181 44.9937 21.4232 44.9408 21.4268C44.928 21.4277 44.9151 21.426 44.903 21.4219C44.8908 21.4178 44.8795 21.4113 44.8699 21.4029C44.8602 21.3945 44.8523 21.3842 44.8466 21.3727C44.8409 21.3612 44.8375 21.3487 44.8366 21.3359C44.8358 21.323 44.8375 21.3102 44.8416 21.298C44.8457 21.2859 44.8521 21.2746 44.8606 21.2649C44.869 21.2553 44.8793 21.2474 44.8908 21.2417C44.9023 21.236 44.9148 21.2326 44.9276 21.2317C45.907 21.1986 46.8852 21.3273 47.8228 21.6127C49.215 22.0477 50.9984 23.0615 51.5881 25.4209C51.5912 25.4334 51.5919 25.4463 51.59 25.459C51.5881 25.4717 51.5837 25.4838 51.5771 25.4948C51.5705 25.5058 51.5618 25.5154 51.5515 25.523C51.5412 25.5306 51.5296 25.5362 51.5171 25.5393C51.5094 25.5414 51.5014 25.5425 51.4934 25.5426Z" fill="#292A2E"/>
<path d="M51.5069 25.5755C51.4866 25.5755 51.4669 25.5692 51.4504 25.5575L50.3464 24.7741C50.3254 24.7591 50.3111 24.7363 50.3068 24.7108C50.3025 24.6853 50.3085 24.6591 50.3235 24.638C50.3385 24.617 50.3612 24.6027 50.3867 24.5984C50.4122 24.5941 50.4384 24.6001 50.4595 24.6151L51.4827 25.3412L52.2121 24.2836C52.2268 24.2625 52.2493 24.2481 52.2747 24.2435C52.3 24.239 52.3262 24.2446 52.3474 24.2593C52.3686 24.2739 52.3831 24.2963 52.3878 24.3216C52.3926 24.347 52.3871 24.3731 52.3726 24.3944L51.5872 25.5334C51.5798 25.544 51.5705 25.5531 51.5596 25.5601C51.5487 25.5671 51.5366 25.5718 51.5239 25.5741C51.5182 25.575 51.5126 25.5755 51.5069 25.5755Z" fill="#292A2E"/>
<path d="M99.464 88.3062L99.6555 88.2693L96.6612 58.514L96.4696 58.5509L99.464 88.3062Z" fill="#494949"/>
<path d="M88.3142 88.3062L88.5058 88.2693L85.5115 58.514L85.3199 58.5509L88.3142 88.3062Z" fill="#494949"/>
<path d="M63.6688 88.3062L63.4772 88.2693L66.4715 58.514L66.6631 58.5509L63.6688 88.3062Z" fill="#494949"/>
<path d="M74.8184 88.3062L74.6268 88.2693L77.6211 58.514L77.8127 58.5509L74.8184 88.3062Z" fill="#494949"/>
<path d="M78.7884 45.4178L77.0392 58.519L77.2326 58.5448L78.9818 45.4436L78.7884 45.4178Z" fill="#494949"/>
<path d="M98.8662 45.4177L97.1169 58.5189L97.3103 58.5447L99.0596 45.4435L98.8662 45.4177Z" fill="#494949"/>
<path d="M77.0569 59.4917H96.6954C97.2252 59.4917 97.6548 59.0622 97.6548 58.5323V58.5322C97.6548 58.0024 97.2252 57.5728 96.6954 57.5728H77.0569C76.5271 57.5728 76.0975 58.0024 76.0975 58.5322V58.5323C76.0975 59.0622 76.5271 59.4917 77.0569 59.4917Z" fill="#292A2E"/>
<path opacity="0.8" d="M77.0569 59.4917H96.6954C97.2252 59.4917 97.6548 59.0622 97.6548 58.5323V58.5322C97.6548 58.0024 97.2252 57.5728 96.6954 57.5728H77.0569C76.5271 57.5728 76.0975 58.0024 76.0975 58.5322V58.5323C76.0975 59.0622 76.5271 59.4917 77.0569 59.4917Z" fill="white"/>
<path d="M75.9999 58.5324C76.0002 58.2522 76.1117 57.9835 76.3098 57.7854C76.508 57.5873 76.7766 57.4758 77.0568 57.4755H96.6953C96.9756 57.4755 97.2445 57.5869 97.4427 57.7851C97.6409 57.9833 97.7522 58.2521 97.7522 58.5325C97.7522 58.8128 97.6409 59.0816 97.4427 59.2798C97.2445 59.478 96.9756 59.5894 96.6953 59.5894H77.0568C76.7766 59.5891 76.5079 59.4776 76.3098 59.2794C76.1116 59.0813 76.0002 58.8126 75.9999 58.5324ZM77.0568 57.6705C76.8282 57.6705 76.609 57.7613 76.4474 57.9229C76.2858 58.0846 76.195 58.3038 76.195 58.5324C76.195 58.7609 76.2858 58.9802 76.4474 59.1418C76.609 59.3034 76.8282 59.3942 77.0568 59.3942H96.6953C96.9239 59.3942 97.1431 59.3034 97.3047 59.1418C97.4663 58.9802 97.5571 58.7609 97.5571 58.5324C97.5571 58.3038 97.4663 58.0846 97.3047 57.9229C97.1431 57.7613 96.9239 57.6705 96.6953 57.6705H77.0568Z" fill="#292A2E"/>
<path d="M66.2782 59.4917H85.9167C86.4466 59.4917 86.8761 59.0622 86.8761 58.5323V58.5322C86.8761 58.0024 86.4466 57.5728 85.9167 57.5728H66.2782C65.7484 57.5728 65.3188 58.0024 65.3188 58.5322V58.5323C65.3188 59.0622 65.7484 59.4917 66.2782 59.4917Z" fill="white"/>
<path d="M65.2207 58.5324C65.2211 58.2521 65.3326 57.9834 65.5309 57.7853C65.7291 57.5871 65.9978 57.4757 66.2781 57.4755H85.9166C86.1969 57.4755 86.4658 57.5869 86.664 57.7851C86.8622 57.9833 86.9735 58.2521 86.9735 58.5325C86.9735 58.8128 86.8622 59.0816 86.664 59.2798C86.4658 59.478 86.1969 59.5894 85.9166 59.5894H66.2781C65.9978 59.5892 65.7291 59.4777 65.5308 59.2796C65.3326 59.0814 65.221 58.8127 65.2207 58.5324ZM66.2781 57.6706C66.165 57.6706 66.0529 57.6929 65.9483 57.7362C65.8438 57.7795 65.7487 57.843 65.6687 57.923C65.5887 58.0031 65.5252 58.0981 65.4819 58.2026C65.4386 58.3072 65.4163 58.4193 65.4163 58.5325C65.4163 58.6456 65.4386 58.7577 65.4819 58.8623C65.5252 58.9668 65.5887 59.0618 65.6687 59.1419C65.7487 59.2219 65.8438 59.2854 65.9483 59.3287C66.0529 59.372 66.165 59.3943 66.2781 59.3943H85.9166C86.1452 59.3943 86.3644 59.3035 86.526 59.1419C86.6876 58.9802 86.7784 58.761 86.7784 58.5325C86.7784 58.3039 86.6876 58.0847 86.526 57.923C86.3644 57.7614 86.1452 57.6706 85.9166 57.6706H66.2781Z" fill="#292A2E"/>
<path d="M79.8652 45.4311H98.9113C99.2227 45.4311 99.5234 45.3178 99.7574 45.1123C99.9914 44.9068 100.143 44.6232 100.183 44.3144L101.443 34.6393C101.466 34.4585 101.451 34.2747 101.398 34.1003C101.345 33.9258 101.255 33.7647 101.135 33.6277C101.014 33.4906 100.866 33.3808 100.7 33.3056C100.534 33.2304 100.353 33.1915 100.171 33.1915H81.125C80.8135 33.1914 80.5126 33.3047 80.2786 33.5103C80.0445 33.7158 79.8933 33.9996 79.8531 34.3085L78.5932 43.9833C78.5697 44.1642 78.585 44.348 78.6382 44.5225C78.6913 44.697 78.7811 44.8581 78.9015 44.9952C79.0219 45.1322 79.1701 45.242 79.3363 45.3172C79.5025 45.3923 79.6828 45.4312 79.8652 45.4311Z" fill="#292A2E"/>
<path opacity="0.8" d="M79.8652 45.4311H98.9113C99.2227 45.4311 99.5234 45.3178 99.7574 45.1123C99.9914 44.9068 100.143 44.6232 100.183 44.3144L101.443 34.6393C101.466 34.4585 101.451 34.2747 101.398 34.1003C101.345 33.9258 101.255 33.7647 101.135 33.6277C101.014 33.4906 100.866 33.3808 100.7 33.3056C100.534 33.2304 100.353 33.1915 100.171 33.1915H81.125C80.8135 33.1914 80.5126 33.3047 80.2786 33.5103C80.0445 33.7158 79.8933 33.9996 79.8531 34.3085L78.5932 43.9833C78.5697 44.1642 78.585 44.348 78.6382 44.5225C78.6913 44.697 78.7811 44.8581 78.9015 44.9952C79.0219 45.1322 79.1701 45.242 79.3363 45.3172C79.5025 45.3923 79.6828 45.4312 79.8652 45.4311Z" fill="white"/>
<path d="M78.8289 45.0595C78.6994 44.912 78.6028 44.7387 78.5456 44.5509C78.4884 44.3632 78.4719 44.1654 78.4972 43.9708L79.7571 34.296C79.801 33.964 79.9639 33.6592 80.2155 33.4382C80.4672 33.2172 80.7904 33.095 81.1253 33.0943H100.171C100.368 33.0943 100.562 33.1361 100.74 33.217C100.919 33.298 101.079 33.4161 101.208 33.5636C101.338 33.711 101.434 33.8844 101.491 34.0722C101.549 34.2599 101.565 34.4577 101.54 34.6523L100.28 44.3271C100.236 44.6591 100.073 44.9638 99.8214 45.1848C99.5698 45.4058 99.2465 45.528 98.9116 45.5288H79.8653C79.6691 45.5287 79.4752 45.4868 79.2965 45.4059C79.1178 45.325 78.9584 45.2069 78.8289 45.0595ZM81.1251 33.2894C80.8376 33.2901 80.5602 33.3951 80.3442 33.5848C80.1283 33.7745 79.9884 34.0362 79.9507 34.3211L78.6909 43.996C78.6691 44.1631 78.6833 44.3329 78.7323 44.4941C78.7814 44.6553 78.8643 44.8041 78.9755 44.9307C79.0867 45.0573 79.2236 45.1588 79.3771 45.2282C79.5306 45.2977 79.6972 45.3337 79.8657 45.3337H98.9117C99.1993 45.3331 99.4768 45.2281 99.6928 45.0384C99.9089 44.8486 100.049 44.587 100.086 44.3019L101.346 34.627C101.368 34.46 101.354 34.2902 101.305 34.129C101.256 33.9678 101.173 33.8189 101.062 33.6923C100.951 33.5657 100.814 33.4643 100.66 33.3948C100.507 33.3253 100.34 33.2894 100.172 33.2894H81.1251Z" fill="#292A2E"/>
<path d="M78.788 45.4311H97.8341C98.1455 45.4311 98.4462 45.3178 98.6802 45.1123C98.9142 44.9068 99.0654 44.6232 99.1056 44.3144L100.365 34.6393C100.389 34.4585 100.374 34.2747 100.321 34.1003C100.267 33.9258 100.178 33.7647 100.057 33.6276C99.937 33.4906 99.7888 33.3808 99.6227 33.3056C99.4566 33.2304 99.2763 33.1915 99.0939 33.1915H80.048C79.7367 33.1915 79.4359 33.3048 79.202 33.5103C78.968 33.7158 78.8168 33.9994 78.7766 34.3082L77.5168 43.983C77.4932 44.1639 77.5084 44.3477 77.5615 44.5222C77.6146 44.6966 77.7043 44.8578 77.8246 44.9949C77.9449 45.1319 78.0931 45.2417 78.2592 45.317C78.4254 45.3922 78.6056 45.4311 78.788 45.4311Z" fill="white"/>
<path d="M77.7514 45.0595C77.6219 44.912 77.5253 44.7387 77.4681 44.5509C77.4109 44.3632 77.3944 44.1654 77.4197 43.9708L78.6795 34.296C78.7235 33.9639 78.8865 33.6591 79.1382 33.4381C79.3899 33.2171 79.7132 33.0949 80.0482 33.0943H99.0942C99.2905 33.0943 99.4845 33.1361 99.6633 33.217C99.842 33.298 100.002 33.4161 100.131 33.5636C100.26 33.711 100.357 33.8844 100.414 34.0722C100.471 34.2599 100.488 34.4577 100.462 34.6523L99.2027 44.3271C99.1587 44.6591 98.9958 44.9638 98.7441 45.1848C98.4925 45.4058 98.1693 45.528 97.8344 45.5288H78.7881C78.5919 45.5288 78.3979 45.4869 78.2191 45.4059C78.0404 45.325 77.8809 45.2069 77.7514 45.0595ZM80.0482 33.2894C79.7606 33.29 79.4831 33.395 79.2671 33.5847C79.051 33.7744 78.9112 34.0361 78.8734 34.3211L77.6135 43.996C77.5918 44.1631 77.6059 44.3329 77.655 44.4941C77.7041 44.6553 77.787 44.8041 77.8982 44.9307C78.0094 45.0573 78.1463 45.1588 78.2998 45.2282C78.4533 45.2977 78.6198 45.3337 78.7883 45.3337H97.8342C98.1217 45.3331 98.3993 45.2281 98.6153 45.0384C98.8314 44.8486 98.9712 44.587 99.009 44.3019L100.269 34.6271C100.291 34.4601 100.276 34.2902 100.227 34.1291C100.178 33.9679 100.095 33.819 99.9842 33.6924C99.873 33.5658 99.7361 33.4643 99.5826 33.3948C99.4291 33.3253 99.2625 33.2894 99.094 33.2894H80.0482Z" fill="#292A2E"/>
<path d="M64.3935 83.1519C64.3935 83.1519 63.8705 85.8632 61.332 86.0143C58.7935 86.1654 59.344 88.1876 59.344 88.1876H69.0447V83.341L64.3935 83.1519Z" fill="#00B998"/>
<path d="M73.0974 81.4401C73.0974 81.4401 73.8248 84.1038 71.6137 85.3599C69.4027 86.616 70.7892 88.1875 70.7892 88.1875L79.4936 83.9052L77.3543 79.5567L73.0974 81.4401Z" fill="#00B998"/>
<path d="M78.4886 80.6878L71.1482 57.5307H84.4538C87.1266 57.5307 88.2407 55.2642 88.2407 52.5915C88.2407 49.9189 85.6133 47.576 82.9406 47.576H64.9828C63.3528 47.576 61.5249 48.5729 60.6302 49.9357C59.7355 51.2984 59.9773 53.4102 60.6255 54.9059L72.3801 83.4551" fill="#262626"/>
<path opacity="0.8" d="M78.4886 80.6878L71.1482 57.5307H84.4538C87.1266 57.5307 88.2407 55.2642 88.2407 52.5915C88.2407 49.9189 85.6133 47.576 82.9406 47.576H64.9828C63.3528 47.576 61.5249 48.5729 60.6302 49.9357C59.7355 51.2984 59.9773 53.4102 60.6255 54.9059L72.3801 83.4551" fill="#0A0A0A"/>
<path d="M69.8031 85.0955L72.1247 57.5308L88.2406 57.5297C92.0169 57.2337 93.7463 55.1641 93.6913 52.4921C93.637 49.8539 92.3013 47.2482 89.6749 47.2482H67.9541C66.011 47.2881 63.7613 49.1262 63.7613 51.2402L62.6326 84.7753" fill="#262626"/>
<path d="M94.7908 47.2805C94.7908 47.2805 95.5065 51.9478 94.372 54.5427C92.9557 57.7822 87.6464 57.5298 87.6464 57.5298L87.9455 47.2482L94.7908 47.2805Z" fill="#262626"/>
<path d="M95.5798 46.7529L95.6005 46.754C95.6005 46.754 95.5856 46.3564 95.5798 46.7529Z" fill="#333333"/>
<path d="M95.5538 46.7529L95.5745 46.754C95.5745 46.754 95.5596 46.3564 95.5538 46.7529Z" fill="#333333"/>
<path d="M61.0038 27.8306C61.0417 27.7554 61.1021 27.6939 61.1766 27.6544C61.251 27.615 61.3359 27.5997 61.4194 27.6106C61.4188 27.6031 61.4204 27.5957 61.4241 27.5892C61.428 27.5842 61.4331 27.5803 61.439 27.5779C61.4448 27.5756 61.4512 27.5748 61.4575 27.5756L61.1756 27.3735C61.0913 27.3158 61.0309 27.2295 61.0053 27.1306C60.9797 27.0318 60.9907 26.927 61.0363 26.8356C61.0843 26.7468 61.1636 26.679 61.2588 26.6453C61.354 26.6116 61.4583 26.6145 61.5515 26.6533C61.5508 26.6493 61.5535 26.6455 61.554 26.6414L61.4382 26.5584C61.3591 26.5037 61.3012 26.4234 61.2745 26.3309C61.2477 26.2385 61.2537 26.1397 61.2913 26.0512C61.3162 25.9961 61.3529 25.9472 61.399 25.9081C61.445 25.869 61.4991 25.8405 61.5574 25.8249C61.6158 25.8092 61.6768 25.8066 61.7363 25.8174C61.7957 25.8282 61.852 25.852 61.9011 25.8872L62.1685 26.0788C62.1693 26.0772 62.1685 26.0753 62.1696 26.0739C62.1706 26.0724 62.1735 26.0718 62.175 26.0703C62.1137 26.0012 62.0776 25.9133 62.0727 25.8211C62.0678 25.7288 62.0944 25.6376 62.1481 25.5624C62.2743 25.3594 62.5656 25.4009 62.7385 25.5248L64.312 26.6117L64.031 26.1372C63.9744 26.0461 63.9544 25.9368 63.9752 25.8316C63.996 25.7263 64.0559 25.6329 64.143 25.5701C64.189 25.5393 64.2409 25.5182 64.2953 25.5081C64.3498 25.498 64.4058 25.4991 64.4598 25.5113C64.5139 25.5236 64.5648 25.5467 64.6097 25.5793C64.6545 25.6118 64.6922 25.6532 64.7205 25.7009L66.2562 28.2859C66.4363 28.5892 66.4911 28.9508 66.4089 29.2939C66.3267 29.6369 66.114 29.9344 65.8159 30.1231C65.4703 30.342 65.0672 30.4527 64.6582 30.4409C64.2493 30.4292 63.8531 30.2955 63.5206 30.0572L61.1443 28.354C61.0654 28.2953 61.0086 28.2117 60.9831 28.1167C60.9576 28.0218 60.9649 27.921 61.0038 27.8306Z" fill="#E98862"/>
<g opacity="0.25">
<path d="M63.7258 27.152C63.72 27.16 63.7113 27.1654 63.7016 27.167C63.6919 27.1686 63.6819 27.1664 63.6739 27.1608L62.1788 26.1253C62.1707 26.1196 62.1652 26.1109 62.1634 26.1012C62.1617 26.0914 62.1639 26.0813 62.1695 26.0731C62.1752 26.065 62.1838 26.0593 62.1936 26.0575C62.2034 26.0557 62.2134 26.0578 62.2217 26.0634L63.7168 27.0991C63.7209 27.1019 63.7244 27.1054 63.7271 27.1096C63.7298 27.1137 63.7317 27.1184 63.7326 27.1232C63.7335 27.1281 63.7334 27.1331 63.7324 27.1379C63.7313 27.1428 63.7294 27.1474 63.7265 27.1515L63.7258 27.152Z" fill="#0C0C0C"/>
</g>
<g opacity="0.25">
<path d="M63.2871 27.824C63.2813 27.832 63.2726 27.8374 63.2629 27.839C63.2532 27.8407 63.2433 27.8384 63.2352 27.8328L61.5671 26.6772C61.5589 26.6715 61.5532 26.6628 61.5514 26.653C61.5496 26.6432 61.5517 26.633 61.5574 26.6248C61.5632 26.6168 61.5719 26.6114 61.5816 26.6096C61.5913 26.6078 61.6014 26.6097 61.6097 26.615L63.2783 27.7707C63.2824 27.7735 63.2859 27.7771 63.2886 27.7812C63.2913 27.7854 63.2931 27.79 63.294 27.7949C63.295 27.7997 63.2949 27.8047 63.2939 27.8096C63.2928 27.8144 63.2909 27.819 63.2881 27.8231L63.2871 27.824Z" fill="#0C0C0C"/>
</g>
<g opacity="0.25">
<path d="M62.8164 28.5546C62.8106 28.5626 62.802 28.568 62.7923 28.5696C62.7826 28.5712 62.7726 28.569 62.7645 28.5634L61.4336 27.6416C61.4257 27.6358 61.4203 27.6271 61.4187 27.6174C61.4171 27.6077 61.4193 27.5978 61.4249 27.5898C61.4305 27.5817 61.439 27.5761 61.4487 27.5743C61.4583 27.5724 61.4683 27.5744 61.4765 27.5797L62.8074 28.5016C62.8115 28.5044 62.815 28.5079 62.8177 28.5121C62.8204 28.5162 62.8223 28.5209 62.8232 28.5257C62.8241 28.5306 62.824 28.5356 62.823 28.5404C62.822 28.5453 62.82 28.5499 62.8172 28.554L62.8164 28.5546Z" fill="#0C0C0C"/>
</g>
<path d="M67.1622 27.6973L71.6721 35.3782L77.1751 28.1603L81.7451 32.2805L73.9402 42.388L73.8891 42.4599C73.5767 42.8878 73.1605 43.2291 72.6798 43.4517C72.199 43.6742 71.6695 43.7707 71.1412 43.732C70.6128 43.6934 70.103 43.5208 69.6598 43.2306C69.2165 42.9405 68.8545 42.5422 68.6077 42.0735L62.1946 30.4597L67.1622 27.6973Z" fill="#00B998"/>
<path d="M72.1138 36.3019C72.1236 36.3019 72.1333 36.2994 72.1418 36.2946C72.1504 36.2898 72.1576 36.2829 72.1627 36.2745C72.1678 36.2662 72.1707 36.2566 72.1711 36.2468C72.1715 36.2371 72.1693 36.2273 72.1649 36.2186L71.7228 35.3523C71.7156 35.3393 71.7036 35.3295 71.6894 35.3252C71.6751 35.3209 71.6598 35.3222 71.6465 35.329C71.6333 35.3357 71.6232 35.3474 71.6183 35.3614C71.6135 35.3755 71.6143 35.3909 71.6206 35.4044L72.0628 36.2707C72.0676 36.2801 72.0749 36.288 72.0839 36.2935C72.0929 36.299 72.1033 36.3019 72.1138 36.3019Z" fill="#0C0C0C"/>
<path d="M77.4919 35.3347L77.3776 35.3412L77.5152 37.7671L77.6296 37.7606L77.4919 35.3347Z" fill="#0C0C0C"/>
<path d="M92.0239 17.7774C92.0239 17.7774 92.2352 20.4777 92.8546 21.4511C94.6376 24.2534 95.1814 27.423 93.4478 29.1021C91.7141 30.7812 80.5346 30.9338 79.6435 27.1284C78.8932 23.9242 80.4195 23.5611 80.7611 20.9067C80.9157 19.7058 81.35 17.1861 81.35 17.1861" fill="#0A0A0A"/>
<path d="M82.4895 26.5196C82.509 26.5171 82.7229 30.0704 86.8513 29.7609C89.7095 29.5468 90.7283 26.5145 90.7938 26.5145C90.4857 26.4491 89.9668 26.3539 89.8299 26.2804C89.3798 26.0386 88.823 25.787 88.678 24.9131C88.5944 24.4093 88.7365 21.8324 88.6925 21.3227L84.3056 22.3019C84.3668 23.3782 84.7958 25.8735 83.2921 26.3151C83.0419 26.3886 82.7724 26.4558 82.4895 26.5196Z" fill="#E98862"/>
<path opacity="0.52" d="M84.244 25.2957C84.3127 25.0742 84.357 24.8459 84.376 24.6148C84.4242 24.0874 84.4146 23.5564 84.3473 23.0312C85.239 22.9108 86.079 22.5428 86.772 21.9689C86.8534 22.2697 87.3015 23.5843 87.1774 23.8702C86.9429 24.4107 85.8411 25.2957 84.244 25.2957Z" fill="#0C0C0C"/>
<path d="M84.8257 24.1773C86.557 24.3246 88.7868 23.6068 89.2237 21.2983L89.6179 19.2153C90.0548 16.9067 89.1965 14.8061 87.0231 14.3944C84.8496 13.9831 82.8707 15.547 82.4338 17.8556L82.2593 18.7778C82.0914 19.6636 81.7364 23.9144 84.8257 24.1773Z" fill="#E98862"/>
<path d="M82.8784 18.8783C83.0289 18.8783 83.1509 18.7564 83.1509 18.6059C83.1509 18.4554 83.0289 18.3334 82.8784 18.3334C82.7279 18.3334 82.606 18.4554 82.606 18.6059C82.606 18.7564 82.7279 18.8783 82.8784 18.8783Z" fill="#0C0C0C"/>
<path d="M85.6699 19.2512C85.8204 19.2512 85.9424 19.1293 85.9424 18.9788C85.9424 18.8283 85.8204 18.7063 85.6699 18.7063C85.5194 18.7063 85.3975 18.8283 85.3975 18.9788C85.3975 19.1293 85.5194 19.2512 85.6699 19.2512Z" fill="#0C0C0C"/>
<path d="M84.138 20.9763C84.1366 20.9762 84.1352 20.976 84.1338 20.9757C84.0458 20.9584 83.9588 20.9362 83.8731 20.9093C83.7453 20.8682 83.5779 20.8001 83.6 20.6849C83.6248 20.5534 84.2536 19.2022 84.3254 19.0488C84.3316 19.0353 84.343 19.0249 84.3569 19.0199C84.3708 19.0148 84.3861 19.0154 84.3996 19.0217C84.413 19.0279 84.4234 19.0393 84.4285 19.0532C84.4335 19.0671 84.4329 19.0825 84.4266 19.0959C84.1584 19.6714 83.7264 20.6176 83.7098 20.7054C83.7241 20.7465 83.9363 20.8244 84.1548 20.8659C84.1691 20.8684 84.1818 20.8765 84.1903 20.8883C84.1988 20.9001 84.2023 20.9147 84.2002 20.9291C84.198 20.9434 84.1904 20.9564 84.1788 20.9652C84.1672 20.974 84.1527 20.978 84.1383 20.9762L84.138 20.9763Z" fill="#0C0C0C"/>
<path d="M84.4598 21.9731C84.1053 21.927 83.7665 21.7983 83.4708 21.5973C83.4584 21.5892 83.4497 21.5766 83.4466 21.5621C83.4436 21.5476 83.4464 21.5325 83.4545 21.5201C83.4626 21.5077 83.4753 21.499 83.4897 21.4959C83.5042 21.4929 83.5193 21.4957 83.5317 21.5038C84.1716 21.9207 84.8075 21.9881 85.3704 21.6989C85.3818 21.6926 85.3935 21.6871 85.4055 21.6822C85.4194 21.6772 85.4347 21.6779 85.4481 21.6841C85.4615 21.6904 85.4719 21.7018 85.4769 21.7157C85.482 21.7296 85.4812 21.745 85.475 21.7584C85.4687 21.7718 85.4573 21.7821 85.4434 21.7872C85.439 21.789 85.4316 21.7929 85.4215 21.7982C85.1255 21.9508 84.7906 22.0117 84.4598 21.9731Z" fill="#0C0C0C"/>
<path d="M91.3567 19.9413L89.4082 19.5841C87.9326 18.9869 87.4865 16.4323 87.4865 16.4323C87.4865 16.4323 85.6941 18.1794 81.3507 17.1857C81.3507 17.1857 82.2217 11.128 88.639 12.8893C90.7082 13.4573 92.1933 15.5426 92.0084 18.3294C91.878 20.2824 91.3567 19.9413 91.3567 19.9413Z" fill="#0A0A0A"/>
<path d="M88.9555 21.9761C89.616 22.1011 90.2852 21.4958 90.4102 20.8348C90.5353 20.1738 90.0688 19.7086 89.4081 19.5836L88.984 19.9618L88.3876 21.8682L88.9555 21.9761Z" fill="#E98862"/>
<path d="M83.9271 17.9445C83.7345 17.8201 83.5118 17.7498 83.2826 17.741C83.1698 17.736 83.0569 17.7479 82.9477 17.7764C82.8394 17.8042 82.7351 17.8456 82.6372 17.8994C82.6246 17.907 82.6154 17.9189 82.6112 17.9329C82.607 17.9469 82.6082 17.9619 82.6146 17.9751C82.6209 17.9882 82.632 17.9985 82.6456 18.004C82.6591 18.0094 82.6742 18.0095 82.6879 18.0044L82.692 18.0025C82.7825 17.9583 82.8782 17.9255 82.9769 17.905C83.0745 17.8841 83.1746 17.8781 83.274 17.8872C83.4711 17.9037 83.6603 17.972 83.8224 18.0854L83.8276 18.0892C83.8369 18.0969 83.8476 18.1026 83.8591 18.106C83.8707 18.1094 83.8828 18.1104 83.8947 18.1089C83.9067 18.1074 83.9182 18.1035 83.9286 18.0973C83.9389 18.0912 83.9479 18.083 83.955 18.0733C83.962 18.0635 83.967 18.0524 83.9696 18.0407C83.9722 18.029 83.9724 18.0168 83.9701 18.005C83.9678 17.9932 83.9631 17.982 83.9562 17.972C83.9494 17.9621 83.9407 17.9537 83.9305 17.9473L83.9271 17.9445Z" fill="#0C0C0C"/>
<path d="M85.6648 18.3537C85.8569 18.3067 86.058 18.3113 86.2477 18.367C86.3437 18.3945 86.4349 18.4363 86.5183 18.491C86.6029 18.5459 86.6803 18.6111 86.7486 18.6853L86.7517 18.6884C86.7626 18.6982 86.7767 18.7035 86.7913 18.7033C86.8059 18.7032 86.8199 18.6976 86.8306 18.6876C86.8413 18.6777 86.8478 18.6641 86.849 18.6495C86.8502 18.635 86.8459 18.6205 86.8369 18.6089C86.7651 18.5234 86.6828 18.4472 86.5919 18.3821C86.5003 18.3161 86.3993 18.2641 86.2923 18.228C86.0754 18.1534 85.8424 18.1385 85.6178 18.185C85.5964 18.1911 85.5781 18.2051 85.5666 18.2242C85.5551 18.2433 85.5514 18.2661 85.556 18.2878C85.5607 18.3096 85.5735 18.3288 85.5918 18.3415C85.6101 18.3542 85.6325 18.3595 85.6546 18.3563L85.6582 18.3554L85.6648 18.3537Z" fill="#0C0C0C"/>
<path d="M84.3844 22.4972C84.3201 22.4899 84.2566 22.4771 84.1946 22.4591C84.1803 22.455 84.1683 22.4454 84.1611 22.4324C84.154 22.4194 84.1523 22.4042 84.1564 22.3899C84.1605 22.3757 84.17 22.3637 84.183 22.3565C84.196 22.3494 84.2112 22.3476 84.2255 22.3517C84.5991 22.4591 84.8115 22.3168 84.8205 22.3107C84.8326 22.3022 84.8476 22.2988 84.8622 22.3014C84.8768 22.3039 84.8898 22.3122 84.8983 22.3243C84.9068 22.3364 84.9102 22.3514 84.9076 22.366C84.9051 22.3806 84.8968 22.3936 84.8847 22.4021C84.7339 22.4906 84.5571 22.5242 84.3844 22.4972Z" fill="#0C0C0C"/>
<path d="M89.404 19.5594L89.4235 19.5054C86.9547 18.6192 87.5584 16.1965 87.5648 16.1721L87.5094 16.1576C87.5027 16.1824 86.8852 18.6551 89.404 19.5594Z" fill="#0C0C0C"/>
<path opacity="0.1" d="M86.4464 20.8231C86.4689 20.6141 86.2561 20.4197 85.9711 20.389C85.686 20.3584 85.4368 20.503 85.4143 20.7121C85.3918 20.9211 85.6046 21.1155 85.8896 21.1461C86.1746 21.1768 86.4239 21.0322 86.4464 20.8231Z" fill="#0C0C0C"/>
<path opacity="0.1" d="M82.8729 20.3466C82.8497 20.5553 82.6006 20.6998 82.3156 20.6694C82.2663 20.6642 82.2177 20.6538 82.1706 20.6384C82.1545 20.39 82.1511 20.1507 82.1557 19.9294C82.2345 19.9088 82.3164 19.903 82.3973 19.9125C82.6821 19.9427 82.8951 20.137 82.8729 20.3466Z" fill="#0C0C0C"/>
<path d="M77.3603 34.343C77.4903 35.8707 78.1228 45.366 78.248 47.2481L94.7909 47.2832C94.8884 45.5858 96.0128 38.1651 96.3819 34.8463C96.7342 31.6795 97.4257 30.094 96.9184 29.1577C96.0904 27.6275 93.8279 26.7434 92.2848 26.5344C91.3428 26.4069 89.9258 26.3155 89.9258 26.3155C89.9258 26.3155 89.8059 28.7424 86.9452 28.8775C83.051 29.0612 83.3111 26.3155 83.2917 26.3155C82.6609 26.3155 79.057 26.7148 78.1752 27.2375C75.7731 28.6598 77.0842 31.1056 77.3603 34.343Z" fill="#00B998"/>
<path d="M66.6223 35.4102L68.217 43.1607C68.2493 43.3181 68.3347 43.4596 68.4588 43.5617C68.5829 43.6637 68.7382 43.7202 68.8989 43.7215L79.8791 43.815C79.9838 43.8159 80.0874 43.7933 80.1824 43.749C80.2773 43.7047 80.3611 43.6397 80.4276 43.5588C80.4941 43.4779 80.5417 43.3831 80.5669 43.2814C80.592 43.1797 80.5942 43.0737 80.573 42.9711L78.9784 35.2206C78.946 35.0632 78.8606 34.9217 78.7365 34.8197C78.6124 34.7176 78.4571 34.6612 78.2964 34.6599L67.3163 34.5663C67.2115 34.5654 67.1079 34.588 67.013 34.6323C66.9181 34.6766 66.8343 34.7416 66.7678 34.8225C66.7012 34.9034 66.6536 34.9982 66.6285 35.0999C66.6033 35.2016 66.6012 35.3076 66.6223 35.4102Z" fill="#292A2E"/>
<path d="M76.8613 40.9156C76.8555 41.0176 76.8867 41.1183 76.9493 41.1992C77.0118 41.28 77.1014 41.3355 77.2017 41.3555L77.5397 41.43C77.5336 41.432 77.5282 41.4355 77.5238 41.4401C77.5194 41.4447 77.5162 41.4503 77.5144 41.4564C77.5136 41.4636 77.5152 41.4708 77.519 41.477C77.4377 41.4998 77.3656 41.5474 77.3126 41.6131C77.2597 41.6788 77.2285 41.7594 77.2234 41.8436C77.2229 41.9418 77.2556 42.0373 77.3161 42.1147C77.3766 42.192 77.4614 42.2467 77.5568 42.2699L80.4111 42.904C80.5571 42.9366 80.7062 42.9529 80.8557 42.9528C81.1889 42.9527 81.517 42.8717 81.8119 42.7166C82.1067 42.5614 82.3594 42.337 82.5481 42.0624C82.7483 41.772 82.8272 41.4149 82.7682 41.0672C82.7091 40.7195 82.5167 40.4085 82.2319 40.2004L79.8039 38.4251C79.7504 38.3859 79.6883 38.3604 79.6228 38.3505L79.8462 39.4357L79.7867 39.4219L79.774 39.4197L77.912 39.041C77.7046 38.9951 77.4205 39.0702 77.3838 39.3068C77.3641 39.3971 77.3756 39.4915 77.4163 39.5745C77.457 39.6575 77.5247 39.7243 77.6082 39.764C77.607 39.7651 77.6046 39.7662 77.6046 39.7686C77.6046 39.7709 77.6058 39.772 77.6058 39.7742L77.2839 39.7032C77.225 39.6902 77.164 39.6904 77.1052 39.7038C77.0464 39.7172 76.9913 39.7434 76.9439 39.7807C76.8965 39.8179 76.8579 39.8652 76.8309 39.9191C76.804 39.973 76.7893 40.0323 76.788 40.0925C76.788 40.1889 76.8213 40.2822 76.8823 40.3567C76.9433 40.4313 77.0282 40.4825 77.1226 40.5016L77.2612 40.5325C77.2623 40.5371 77.2612 40.5417 77.2635 40.5452C77.1624 40.5459 77.0653 40.5842 76.9909 40.6527C76.9166 40.7212 76.8704 40.8149 76.8613 40.9156Z" fill="#E98862"/>
<g opacity="0.25">
<path d="M79.4596 40.1504C79.4574 40.16 79.4515 40.1683 79.4433 40.1737C79.435 40.179 79.425 40.1809 79.4154 40.1789L77.6337 39.8135C77.6288 39.8126 77.6241 39.8108 77.6198 39.808C77.6156 39.8053 77.612 39.8017 77.6092 39.7976C77.6063 39.7934 77.6044 39.7887 77.6034 39.7838C77.6024 39.7789 77.6024 39.7738 77.6034 39.7689C77.6044 39.7639 77.6064 39.7593 77.6093 39.7551C77.6121 39.751 77.6158 39.7474 77.62 39.7447C77.6242 39.742 77.629 39.7402 77.6339 39.7393C77.6389 39.7385 77.644 39.7386 77.6489 39.7398L79.4305 40.1052C79.4353 40.1062 79.4399 40.1081 79.444 40.1109C79.4481 40.1136 79.4516 40.1172 79.4543 40.1213C79.457 40.1254 79.4589 40.13 79.4599 40.1349C79.4608 40.1397 79.4607 40.1447 79.4597 40.1496L79.4596 40.1504Z" fill="#0C0C0C"/>
</g>
<g opacity="0.25">
<path d="M79.3202 40.9406C79.318 40.9502 79.3121 40.9585 79.3038 40.9638C79.2956 40.9691 79.2856 40.971 79.2759 40.969L77.2876 40.5613C77.2828 40.5603 77.2782 40.5583 77.2741 40.5556C77.27 40.5528 77.2665 40.5493 77.2638 40.5451C77.2611 40.541 77.2592 40.5364 77.2582 40.5316C77.2573 40.5267 77.2573 40.5217 77.2583 40.5169C77.2607 40.5073 77.2666 40.4989 77.2748 40.4935C77.2831 40.4881 77.2931 40.486 77.3028 40.4876L79.2911 40.8954C79.3008 40.8974 79.3094 40.9032 79.3149 40.9116C79.3204 40.9199 79.3223 40.9301 79.3203 40.9399L79.3202 40.9406Z" fill="#0C0C0C"/>
</g>
<g opacity="0.25">
<path d="M79.1741 41.7973C79.1719 41.8069 79.1661 41.8152 79.1578 41.8206C79.1495 41.8259 79.1395 41.8278 79.1299 41.8258L77.5438 41.5006C77.5342 41.4984 77.5257 41.4926 77.5203 41.4843C77.515 41.476 77.5131 41.4659 77.5151 41.4562C77.5171 41.4465 77.5228 41.438 77.531 41.4325C77.5393 41.427 77.5493 41.425 77.559 41.4268L79.145 41.752C79.1547 41.7541 79.1633 41.7599 79.1688 41.7682C79.1743 41.7765 79.1762 41.7867 79.1742 41.7964L79.1741 41.7973Z" fill="#0C0C0C"/>
</g>
<path d="M80.5878 44.0328L96.0733 46.8313C96.5565 46.8839 97.0454 46.8238 97.5015 46.6558C97.9576 46.4877 98.3685 46.2162 98.7021 45.8626C99.0357 45.5091 99.2827 45.083 99.424 44.6179C99.5652 44.1528 99.5967 43.6613 99.5161 43.1819L97.3482 30.2958C97.2807 29.8874 97.1333 29.4963 96.9145 29.145C96.6956 28.7937 96.4096 28.489 96.0728 28.2484C95.7359 28.0078 95.3549 27.8361 94.9516 27.743C94.5483 27.65 94.1306 27.6374 93.7224 27.7061C93.3142 27.7747 92.9236 27.9233 92.5729 28.1432C92.2223 28.3631 91.9184 28.65 91.6789 28.9876C91.4393 29.3251 91.2687 29.7066 91.1768 30.1102C91.0849 30.5138 91.0736 30.9315 91.1435 31.3395L92.6222 40.2105L81.2686 38.7846L80.5878 44.0328Z" fill="#00B998"/>
<path d="M96.0735 46.8887C96.0877 46.8885 96.1014 46.8831 96.1118 46.8734C96.1222 46.8637 96.1287 46.8504 96.1299 46.8363C96.1311 46.8221 96.127 46.808 96.1184 46.7966C96.1098 46.7853 96.0973 46.7776 96.0833 46.775L80.6511 43.9863L81.3176 38.8487L92.6137 40.2674C92.6227 40.2686 92.6317 40.2677 92.6402 40.2647C92.6487 40.2617 92.6563 40.2568 92.6625 40.2502C92.6687 40.2438 92.6732 40.2361 92.6759 40.2276C92.6785 40.2192 92.6791 40.2102 92.6777 40.2015L91.7386 34.5322C91.7375 34.5248 91.7349 34.5176 91.7309 34.5112C91.727 34.5048 91.7218 34.4992 91.7156 34.4948C91.7095 34.4904 91.7026 34.4873 91.6952 34.4856C91.6878 34.484 91.6802 34.4838 91.6728 34.4851C91.6578 34.4876 91.6444 34.496 91.6356 34.5084C91.6268 34.5207 91.6232 34.5361 91.6257 34.5511L92.5524 40.1445L81.2758 38.7284C81.2608 38.7266 81.2456 38.7308 81.2337 38.7401C81.2217 38.7493 81.2139 38.7629 81.2118 38.7779L80.531 44.026C80.5291 44.0405 80.5329 44.0553 80.5416 44.0672C80.5502 44.079 80.5632 44.0871 80.5776 44.0898L96.0633 46.8877C96.0666 46.8884 96.0701 46.8887 96.0735 46.8887Z" fill="#0C0C0C"/>
<path d="M92.6313 40.1545L92.6132 40.2677L93.6092 40.4272L93.6274 40.3139L92.6313 40.1545Z" fill="#0C0C0C"/>
<path d="M106.437 88.2485H0.068284C0.050174 88.2485 0.0328057 88.2413 0.0199999 88.2285C0.00719419 88.2157 0 88.1983 0 88.1802C0 88.1621 0.00719419 88.1447 0.0199999 88.1319C0.0328057 88.1191 0.050174 88.1119 0.068284 88.1119H106.437C106.455 88.1119 106.473 88.1191 106.485 88.1319C106.498 88.1447 106.505 88.1621 106.505 88.1802C106.505 88.1983 106.498 88.2157 106.485 88.2285C106.473 88.2413 106.455 88.2485 106.437 88.2485H106.437Z" fill="#292A2E"/>
<g opacity="0.65">
<path d="M106.437 88.2485H0.068284C0.050174 88.2485 0.0328057 88.2413 0.0199999 88.2285C0.00719419 88.2157 0 88.1983 0 88.1802C0 88.1621 0.00719419 88.1447 0.0199999 88.1319C0.0328057 88.1191 0.050174 88.1119 0.068284 88.1119H106.437C106.455 88.1119 106.473 88.1191 106.485 88.1319C106.498 88.1447 106.505 88.1621 106.505 88.1802C106.505 88.1983 106.498 88.2157 106.485 88.2285C106.473 88.2413 106.455 88.2485 106.437 88.2485H106.437Z" fill="#292A2E"/>
</g>
<path d="M6.60943 88.3062L6.41785 88.2693L9.4122 58.514L9.60378 58.5509L6.60943 88.3062Z" fill="#494949"/>
<path d="M17.7591 88.3062L17.5675 88.2693L20.5618 58.514L20.7533 58.5509L17.7591 88.3062Z" fill="#494949"/>
<path d="M42.4046 88.3062L42.5962 88.2693L39.6019 58.514L39.4103 58.5509L42.4046 88.3062Z" fill="#494949"/>
<path d="M31.2549 88.3062L31.4465 88.2693L28.4522 58.514L28.2606 58.5509L31.2549 88.3062Z" fill="#494949"/>
<path d="M27.284 45.4186L27.0906 45.4445L28.8398 58.5456L29.0332 58.5198L27.284 45.4186Z" fill="#494949"/>
<path d="M7.20595 45.4185L7.01257 45.4444L8.76181 58.5455L8.95519 58.5197L7.20595 45.4185Z" fill="#494949"/>
<path d="M29.0166 57.573H9.37809C8.84823 57.573 8.4187 58.0025 8.4187 58.5324V58.5325C8.4187 59.0623 8.84823 59.4919 9.37809 59.4919H29.0166C29.5464 59.4919 29.976 59.0623 29.976 58.5325V58.5324C29.976 58.0025 29.5464 57.573 29.0166 57.573Z" fill="#292A2E"/>
<path opacity="0.8" d="M29.0166 57.573H9.37809C8.84823 57.573 8.4187 58.0025 8.4187 58.5324V58.5325C8.4187 59.0623 8.84823 59.4919 9.37809 59.4919H29.0166C29.5464 59.4919 29.976 59.0623 29.976 58.5325V58.5324C29.976 58.0025 29.5464 57.573 29.0166 57.573Z" fill="white"/>
<path d="M29.0166 59.5894H9.37811C9.23931 59.5894 9.10187 59.5621 8.97363 59.509C8.8454 59.4558 8.72888 59.378 8.63074 59.2798C8.53259 59.1817 8.45474 59.0652 8.40162 58.9369C8.34851 58.8087 8.32117 58.6713 8.32117 58.5325C8.32117 58.3937 8.34851 58.2562 8.40162 58.128C8.45474 57.9998 8.53259 57.8832 8.63074 57.7851C8.72888 57.687 8.8454 57.6091 8.97363 57.556C9.10187 57.5029 9.23931 57.4755 9.37811 57.4755H29.0166C29.2969 57.4755 29.5657 57.5869 29.764 57.7851C29.9622 57.9833 30.0735 58.2521 30.0735 58.5325C30.0735 58.8128 29.9622 59.0816 29.764 59.2798C29.5657 59.478 29.2969 59.5894 29.0166 59.5894ZM9.37811 57.6707C9.26493 57.6707 9.15286 57.693 9.04829 57.7363C8.94373 57.7796 8.84872 57.8431 8.76869 57.9232C8.68866 58.0032 8.62518 58.0982 8.58187 58.2028C8.53856 58.3073 8.51626 58.4194 8.51626 58.5326C8.51626 58.6457 8.53856 58.7578 8.58187 58.8624C8.62518 58.9669 8.68866 59.0619 8.76869 59.142C8.84872 59.222 8.94373 59.2855 9.04829 59.3288C9.15286 59.3721 9.26493 59.3944 9.37811 59.3944H29.0166C29.2452 59.3944 29.4644 59.3036 29.626 59.142C29.7876 58.9804 29.8784 58.7611 29.8784 58.5326C29.8784 58.304 29.7876 58.0848 29.626 57.9232C29.4644 57.7615 29.2452 57.6707 29.0166 57.6707H9.37811Z" fill="#292A2E"/>
<path d="M39.7951 57.573H20.1567C19.6268 57.573 19.1973 58.0025 19.1973 58.5324V58.5325C19.1973 59.0623 19.6268 59.4919 20.1567 59.4919H39.7951C40.325 59.4919 40.7545 59.0623 40.7545 58.5325V58.5324C40.7545 58.0025 40.325 57.573 39.7951 57.573Z" fill="white"/>
<path d="M39.7951 59.5894H20.1567C20.0179 59.5894 19.8804 59.5621 19.7522 59.509C19.624 59.4558 19.5074 59.378 19.4093 59.2798C19.3112 59.1817 19.2333 59.0652 19.1802 58.9369C19.1271 58.8087 19.0997 58.6713 19.0997 58.5325C19.0997 58.3937 19.1271 58.2562 19.1802 58.128C19.2333 57.9998 19.3112 57.8832 19.4093 57.7851C19.5074 57.687 19.624 57.6091 19.7522 57.556C19.8804 57.5029 20.0179 57.4755 20.1567 57.4755H39.7951C39.9339 57.4755 40.0714 57.5029 40.1996 57.556C40.3279 57.6091 40.4444 57.687 40.5425 57.7851C40.6407 57.8832 40.7185 57.9998 40.7716 58.128C40.8247 58.2562 40.8521 58.3937 40.8521 58.5325C40.8521 58.6713 40.8247 58.8087 40.7716 58.9369C40.7185 59.0652 40.6407 59.1817 40.5425 59.2798C40.4444 59.378 40.3279 59.4558 40.1996 59.509C40.0714 59.5621 39.9339 59.5894 39.7951 59.5894ZM20.1567 57.6707C20.0435 57.6707 19.9314 57.693 19.8269 57.7363C19.7223 57.7796 19.6273 57.8431 19.5473 57.9232C19.4672 58.0032 19.4037 58.0982 19.3604 58.2028C19.3171 58.3073 19.2948 58.4194 19.2948 58.5326C19.2948 58.6457 19.3171 58.7578 19.3604 58.8624C19.4037 58.9669 19.4672 59.0619 19.5473 59.142C19.6273 59.222 19.7223 59.2855 19.8269 59.3288C19.9314 59.3721 20.0435 59.3944 20.1567 59.3944H39.7951C39.9083 59.3944 40.0204 59.3721 40.125 59.3288C40.2295 59.2855 40.3245 59.222 40.4046 59.142C40.4846 59.0619 40.5481 58.9669 40.5914 58.8624C40.6347 58.7578 40.657 58.6457 40.657 58.5326C40.657 58.4194 40.6347 58.3073 40.5914 58.2028C40.5481 58.0982 40.4846 58.0032 40.4046 57.9232C40.3245 57.8431 40.2295 57.7796 40.125 57.7363C40.0204 57.693 39.9083 57.6707 39.7951 57.6707H20.1567Z" fill="#292A2E"/>
<path d="M26.2083 45.4313H7.16223C6.85083 45.4313 6.55007 45.3179 6.3161 45.1125C6.08212 44.907 5.93091 44.6234 5.89069 44.3146L4.63085 34.6395C4.6073 34.4587 4.62261 34.2749 4.67573 34.1004C4.72886 33.9259 4.81859 33.7648 4.93894 33.6278C5.05928 33.4908 5.20747 33.381 5.37361 33.3058C5.53975 33.2306 5.72002 33.1917 5.90239 33.1917H24.9485C25.2598 33.1917 25.5606 33.305 25.7946 33.5105C26.0286 33.7159 26.1798 33.9995 26.22 34.3083L27.4797 43.9832C27.5033 44.164 27.4881 44.3479 27.435 44.5224C27.3819 44.6969 27.2922 44.858 27.1719 44.9951C27.0515 45.1321 26.9033 45.2419 26.7372 45.3172C26.571 45.3924 26.3907 45.4313 26.2083 45.4313Z" fill="#292A2E"/>
<path opacity="0.8" d="M26.2083 45.4313H7.16223C6.85083 45.4313 6.55007 45.3179 6.3161 45.1125C6.08212 44.907 5.93091 44.6234 5.89069 44.3146L4.63085 34.6395C4.6073 34.4587 4.62261 34.2749 4.67573 34.1004C4.72886 33.9259 4.81859 33.7648 4.93894 33.6278C5.05928 33.4908 5.20747 33.381 5.37361 33.3058C5.53975 33.2306 5.72002 33.1917 5.90239 33.1917H24.9485C25.2598 33.1917 25.5606 33.305 25.7946 33.5105C26.0286 33.7159 26.1798 33.9995 26.22 34.3083L27.4797 43.9832C27.5033 44.164 27.4881 44.3479 27.435 44.5224C27.3819 44.6969 27.2922 44.858 27.1719 44.9951C27.0515 45.1321 26.9033 45.2419 26.7372 45.3172C26.571 45.3924 26.3907 45.4313 26.2083 45.4313Z" fill="white"/>
<path d="M26.2083 45.5288H7.16221C6.82732 45.5281 6.50407 45.4059 6.25244 45.1849C6.00081 44.9639 5.83789 44.6591 5.7939 44.3271L4.53415 34.6524C4.50879 34.4578 4.52523 34.26 4.58239 34.0722C4.63954 33.8845 4.73609 33.7111 4.86559 33.5636C4.99508 33.4162 5.15455 33.298 5.33334 33.2171C5.51212 33.1362 5.70612 33.0943 5.90237 33.0943H24.9484C25.2833 33.0951 25.6066 33.2173 25.8582 33.4383C26.1098 33.6593 26.2727 33.964 26.3167 34.296L27.5765 43.9709C27.6018 44.1655 27.5854 44.3633 27.5282 44.551C27.4711 44.7387 27.3745 44.9121 27.245 45.0596C27.1155 45.207 26.9561 45.3251 26.7773 45.4061C26.5985 45.487 26.4045 45.5289 26.2083 45.5288ZM5.90237 33.2894C5.73388 33.2894 5.56732 33.3254 5.41382 33.3949C5.26032 33.4644 5.12341 33.5658 5.01223 33.6924C4.90104 33.819 4.81814 33.9678 4.76906 34.129C4.71998 34.2902 4.70584 34.46 4.72759 34.6271L5.98743 44.302C6.02517 44.587 6.16504 44.8487 6.38109 45.0384C6.59713 45.2282 6.87467 45.3331 7.16221 45.3337H26.2083C26.3768 45.3337 26.5433 45.2978 26.6968 45.2283C26.8503 45.1588 26.9872 45.0574 27.0984 44.9308C27.2096 44.8042 27.2925 44.6553 27.3416 44.4941C27.3907 44.3329 27.4048 44.1631 27.3831 43.9961L26.1237 34.3212C26.0859 34.0362 25.9461 33.7745 25.73 33.5847C25.514 33.395 25.2365 33.2901 24.9489 33.2894H5.90237Z" fill="#292A2E"/>
<path d="M27.2851 45.4312H8.23904C7.92765 45.4312 7.6269 45.3179 7.39294 45.1124C7.15898 44.9069 7.00779 44.6233 6.96759 44.3145L5.70775 34.6394C5.68421 34.4586 5.69951 34.2748 5.75264 34.1003C5.80577 33.9259 5.8955 33.7648 6.01584 33.6277C6.13618 33.4907 6.28437 33.3809 6.45051 33.3057C6.61665 33.2305 6.79693 33.1916 6.9793 33.1916H26.0254C26.3367 33.1916 26.6375 33.3049 26.8715 33.5104C27.1054 33.7159 27.2566 33.9995 27.2968 34.3083L28.5566 43.9831C28.5802 44.164 28.565 44.3478 28.5119 44.5223C28.4588 44.6968 28.369 44.858 28.2487 44.995C28.1283 45.1321 27.9801 45.2419 27.814 45.3171C27.6478 45.3923 27.4675 45.4312 27.2851 45.4312Z" fill="white"/>
<path d="M27.2852 45.5288H8.23909C7.90421 45.528 7.58097 45.4058 7.32936 45.1848C7.07775 44.9638 6.91484 44.6591 6.87087 44.3271L5.61103 34.6523C5.5857 34.4577 5.60217 34.2599 5.65934 34.0722C5.71651 33.8845 5.81307 33.7111 5.94257 33.5636C6.07207 33.4162 6.23154 33.298 6.41032 33.2171C6.5891 33.1361 6.78309 33.0943 6.97935 33.0943H26.0253C26.3602 33.095 26.6835 33.2172 26.9351 33.4382C27.1867 33.6592 27.3496 33.964 27.3936 34.296L28.6535 43.9708C28.6788 44.1654 28.6623 44.3632 28.6051 44.5509C28.5479 44.7387 28.4514 44.912 28.3219 45.0595C28.1924 45.2069 28.0329 45.325 27.8542 45.406C27.6754 45.4869 27.4814 45.5288 27.2852 45.5288ZM6.97935 33.2894C6.81082 33.2893 6.64423 33.3253 6.4907 33.3947C6.33716 33.4642 6.20022 33.5657 6.089 33.6923C5.97779 33.8189 5.89486 33.9678 5.84576 34.129C5.79666 34.2902 5.78252 34.46 5.80428 34.6271L7.06402 44.3019C7.1018 44.587 7.24173 44.8487 7.45782 45.0384C7.67392 45.2282 7.95151 45.3331 8.23909 45.3337H27.2852C27.4536 45.3337 27.6202 45.2977 27.7737 45.2282C27.9272 45.1588 28.0641 45.0573 28.1753 44.9307C28.2865 44.8041 28.3694 44.6553 28.4185 44.4941C28.4675 44.3329 28.4817 44.1631 28.4599 43.996L27.2001 34.3211C27.1623 34.0361 27.0225 33.7744 26.8064 33.5847C26.5904 33.3949 26.3128 33.29 26.0253 33.2894H6.97935Z" fill="#292A2E"/>
<path d="M25.1859 18.2652C25.1859 18.2652 26.4516 17.3099 26.7652 15.111C27.008 13.4084 25.4375 14.5115 25.4375 14.5115C25.4375 14.5115 25.6004 13.2838 24.7059 13.4057C23.8113 13.5275 23.3109 14.8171 23.3109 14.8171" fill="#0C0C0C"/>
<path d="M20.0831 13.5497C20.0831 13.5497 15.6452 14.0256 17.2495 20.0393L17.6421 20.0655L18.4393 20.119" fill="#0C0C0C"/>
<path d="M24.4426 26.3188C24.4231 26.3163 24.2067 29.9086 20.033 29.5957C17.1436 29.3793 16.1133 26.3137 16.0471 26.3137C16.3586 26.2475 16.7436 26.147 16.8966 26.1125C17.23 26.0351 17.5321 25.858 17.7624 25.6048C17.9928 25.3516 18.1406 25.0342 18.1862 24.6949C18.2706 24.1857 18.1276 21.5804 18.1714 21.0652L22.6067 22.0559C22.5446 23.1441 22.1109 25.6668 23.6309 26.1133C23.8842 26.1866 24.1566 26.2546 24.4426 26.3188Z" fill="#E98862"/>
<path opacity="0.52" d="M22.6688 25.0818C22.5994 24.858 22.5547 24.6272 22.5355 24.3935C22.4868 23.8604 22.4966 23.3235 22.5648 22.7925C21.6633 22.6708 20.814 22.2987 20.1135 21.7186C20.031 22.0227 19.5781 23.3516 19.7038 23.6408C19.9403 24.1871 21.0542 25.0818 22.6688 25.0818Z" fill="#0C0C0C"/>
<path d="M21.7536 24.3708C20.0038 24.2139 17.9096 23.1083 17.8793 20.7332L17.8516 18.5901C17.8214 16.2149 19.0444 14.2735 21.2807 14.2452C23.517 14.2167 25.2131 16.1209 25.2434 18.496L25.2554 19.4449C25.2539 19.7707 25.2301 20.096 25.1843 20.4186C25.0696 21.2722 24.8917 22.5699 24.3125 23.4478C23.7658 24.2766 22.8713 24.4711 21.7536 24.3708Z" fill="#E98862"/>
<path d="M22.5653 22.1997C22.9264 22.216 23.2863 22.1473 23.616 21.999C23.6228 21.9961 23.629 21.9919 23.6342 21.9866C23.6393 21.9813 23.6434 21.975 23.6462 21.9681C23.649 21.9613 23.6503 21.9539 23.6503 21.9465C23.6502 21.9391 23.6486 21.9318 23.6457 21.925C23.6428 21.9181 23.6386 21.912 23.6333 21.9068C23.628 21.9016 23.6217 21.8975 23.6149 21.8948C23.608 21.892 23.6006 21.8906 23.5932 21.8907C23.5858 21.8908 23.5785 21.8923 23.5717 21.8952C22.8614 22.1976 22.2165 22.1537 21.7068 21.767C21.6965 21.7589 21.6858 21.7513 21.6748 21.7442C21.6619 21.7382 21.6473 21.7372 21.6338 21.7414C21.6203 21.7457 21.6089 21.7548 21.6018 21.7671C21.5947 21.7794 21.5925 21.7939 21.5956 21.8077C21.5987 21.8215 21.6069 21.8337 21.6186 21.8418C21.6227 21.8444 21.6293 21.8496 21.6381 21.8566C21.9061 22.0608 22.2289 22.1802 22.5653 22.1997Z" fill="#0C0C0C"/>
<path d="M22.5483 22.7349C22.6136 22.7389 22.6791 22.7374 22.744 22.7303C22.7586 22.7283 22.7718 22.7207 22.7809 22.7091C22.79 22.6976 22.7942 22.6829 22.7926 22.6683C22.7911 22.6537 22.7839 22.6402 22.7725 22.6308C22.7612 22.6214 22.7467 22.6168 22.732 22.618C22.3413 22.6595 22.1546 22.4804 22.1467 22.4728C22.1361 22.4627 22.1219 22.4572 22.1072 22.4573C22.0925 22.4575 22.0784 22.4634 22.068 22.4738C22.0576 22.4842 22.0516 22.4982 22.0514 22.5129C22.0512 22.5276 22.0567 22.5418 22.0667 22.5525C22.2014 22.6671 22.3716 22.7316 22.5483 22.7349Z" fill="#0C0C0C"/>
<path d="M24.5051 19.9015C24.6572 19.9015 24.7806 19.7782 24.7806 19.6261C24.7806 19.4739 24.6572 19.3506 24.5051 19.3506C24.353 19.3506 24.2296 19.4739 24.2296 19.6261C24.2296 19.7782 24.353 19.9015 24.5051 19.9015Z" fill="#0C0C0C"/>
<path d="M21.8139 19.7326C21.9661 19.7326 22.0894 19.6093 22.0894 19.4571C22.0894 19.305 21.9661 19.1817 21.8139 19.1817C21.6618 19.1817 21.5385 19.305 21.5385 19.4571C21.5385 19.6093 21.6618 19.7326 21.8139 19.7326Z" fill="#0C0C0C"/>
<path d="M18.0272 21.455C17.3476 21.4637 16.7874 20.7436 16.7785 20.064C16.7697 19.3845 17.3161 19.0026 17.9958 18.9939L18.3517 19.4449L18.6113 21.4476L18.0272 21.455Z" fill="#E98862"/>
<path d="M18.7034 20.3629C18.7034 20.3629 18.9328 17.0021 19.952 16.7946C20.6308 16.6563 22.2767 17.6191 23.8013 17.3284C24.4682 17.2015 25.1014 17.3662 25.1658 17.6813C25.1914 17.8061 25.6068 16.0132 24.5624 14.6529C23.7308 13.5701 21.0095 13.2638 19.7714 13.6189C16.3431 14.6023 17.8559 19.1418 17.8559 19.1418L18.0088 20.3005L18.7034 20.3629Z" fill="#0C0C0C"/>
<path d="M22.9761 21.4066H22.9804C23.1994 21.4044 23.5665 21.3763 23.5651 21.2124C23.5636 21.0767 23.1772 19.615 23.1331 19.4488C23.1293 19.4345 23.12 19.4223 23.1072 19.4148C23.0944 19.4074 23.0792 19.4054 23.0649 19.4091C23.0506 19.4129 23.0384 19.4223 23.0309 19.4351C23.0235 19.4479 23.0215 19.4631 23.0252 19.4774C23.1969 20.1247 23.4525 21.1213 23.4535 21.2137C23.4323 21.2528 23.2061 21.2929 22.9794 21.2952C22.9649 21.2952 22.9509 21.3008 22.9405 21.311C22.9301 21.3211 22.924 21.3348 22.9236 21.3493C22.9232 21.3638 22.9284 21.378 22.9382 21.3887C22.948 21.3994 22.9616 21.4058 22.9761 21.4067V21.4066Z" fill="#0C0C0C"/>
<path d="M23.7232 18.1324C23.9534 18.0691 24.1963 18.0691 24.4265 18.1324C24.5396 18.1629 24.6474 18.2101 24.7465 18.2725C24.8444 18.3337 24.9341 18.407 25.0137 18.4906C25.0283 18.5055 25.0367 18.5255 25.037 18.5464C25.0373 18.5673 25.0295 18.5876 25.0153 18.6029C25.0011 18.6182 24.9815 18.6275 24.9606 18.6287C24.9398 18.63 24.9192 18.6231 24.9032 18.6096L24.8984 18.6053C24.8247 18.5372 24.7428 18.4786 24.6545 18.4308C24.5679 18.3834 24.4746 18.3494 24.3777 18.3299C24.1872 18.2899 23.9894 18.301 23.8045 18.3619L23.7967 18.3646C23.7816 18.3699 23.7656 18.3722 23.7496 18.3714C23.7336 18.3705 23.7179 18.3666 23.7035 18.3596C23.689 18.3527 23.6761 18.3431 23.6653 18.3311C23.6546 18.3192 23.6464 18.3053 23.641 18.2902C23.6357 18.2751 23.6334 18.2591 23.6342 18.2431C23.6351 18.2271 23.639 18.2114 23.6459 18.1969C23.6529 18.1825 23.6625 18.1695 23.6745 18.1588C23.6864 18.1481 23.7003 18.1398 23.7154 18.1345C23.718 18.1339 23.7208 18.1331 23.7232 18.1324Z" fill="#0C0C0C"/>
<path d="M22.0934 18.271C21.9182 18.1859 21.7237 18.1485 21.5295 18.1628C21.4309 18.1692 21.3339 18.1905 21.2418 18.226C21.148 18.2616 21.0591 18.3088 20.9771 18.3666L20.9719 18.37C20.9543 18.3819 20.9327 18.3864 20.9118 18.3826C20.891 18.3788 20.8724 18.367 20.8601 18.3496C20.8479 18.3323 20.8429 18.3109 20.8462 18.2899C20.8496 18.2689 20.861 18.2501 20.8781 18.2375C20.9681 18.1651 21.0668 18.1044 21.172 18.0568C21.2785 18.0082 21.3917 17.9758 21.5078 17.9607C21.7443 17.9285 21.9852 17.9608 22.2049 18.0541C22.2346 18.067 22.258 18.0913 22.2699 18.1214C22.2818 18.1516 22.2812 18.1853 22.2683 18.2151C22.2553 18.2448 22.2311 18.2682 22.2009 18.2801C22.1708 18.292 22.1371 18.2914 22.1073 18.2785C22.105 18.2775 22.1027 18.2764 22.1005 18.2752L22.0934 18.271Z" fill="#0C0C0C"/>
<path d="M23.3957 15.8187C23.8988 15.7136 24.1812 15.0282 24.0265 14.2878C23.8718 13.5473 23.3386 13.0323 22.8355 13.1374C22.3325 13.2425 22.0501 13.9279 22.2048 14.6684C22.3595 15.4088 22.8927 15.9238 23.3957 15.8187Z" fill="#0C0C0C"/>
<path d="M51.4519 83.152C51.4519 83.152 51.975 85.8633 54.5135 86.0144C57.052 86.1655 56.5015 88.1877 56.5015 88.1877H46.8008V83.3411L51.4519 83.152Z" fill="#00B998"/>
<path d="M32.9971 81.4402C32.9971 81.4402 32.2693 84.1039 34.4807 85.36C36.6921 86.6161 35.3053 88.1876 35.3053 88.1876L26.6008 83.9053L28.7402 79.5565L32.9971 81.4402Z" fill="#00B998"/>
<path d="M27.6059 80.6879L34.9463 57.5308H21.6407C18.9679 57.5308 17.8538 55.2643 17.8538 52.5916C17.8538 49.919 20.4812 47.5761 23.1539 47.5761H41.1116C42.7417 47.5761 44.5696 48.573 45.4643 49.9358C46.359 51.2985 46.1172 53.4103 45.469 54.906L33.7144 83.4552" fill="#262626"/>
<path opacity="0.8" d="M27.6059 80.6879L34.9463 57.5308H21.6407C18.9679 57.5308 17.8538 55.2643 17.8538 52.5916C17.8538 49.919 20.4812 47.5761 23.1539 47.5761H41.1116C42.7417 47.5761 44.5696 48.573 45.4643 49.9358C46.359 51.2985 46.1172 53.4103 45.469 54.906L33.7144 83.4552" fill="#0A0A0A"/>
<path d="M46.2432 85.6698L33.9697 57.5308L17.8538 57.5297C14.0775 57.2337 12.3482 55.1641 12.4031 52.4921C12.4574 49.8539 13.7932 47.2482 16.4196 47.2482H38.1405C40.0837 47.2881 41.6125 49.4355 42.3334 51.2402L52.5369 83.9471" fill="#262626"/>
<path d="M11.3038 47.2805C11.3038 47.2805 10.5881 51.9478 11.7226 54.5427C13.1389 57.7823 18.4482 57.5298 18.4482 57.5298L18.1491 47.2482L11.3038 47.2805Z" fill="#262626"/>
<path d="M42.7947 47.1886L31.4108 44.8296C30.9364 44.7313 30.4945 44.515 30.1259 44.2006C29.7573 43.8862 29.474 43.484 29.3021 43.0311L24.8246 31.2322C24.6904 30.8785 24.6272 30.5019 24.6385 30.1238C24.6499 29.7457 24.7356 29.3735 24.8907 29.0285C25.0459 28.6835 25.2675 28.3725 25.5429 28.1131C25.8183 27.8538 26.1421 27.6512 26.4958 27.517C26.8494 27.3828 27.2261 27.3196 27.6042 27.3309C27.9823 27.3423 28.3545 27.428 28.6995 27.5832C29.0444 27.7383 29.3555 27.96 29.6148 28.2353C29.8742 28.5107 30.0767 28.8345 30.2109 29.1882L34.1277 39.5088L43.9639 41.547C43.9639 41.547 42.9922 47.2294 42.7947 47.1886Z" fill="#00B998"/>
<path d="M29.6282 34.2286C29.4967 35.773 28.5649 45.4086 28.4381 47.3109H11.3111C11.2127 45.5951 10.8932 38.3105 10.5201 34.9553C10.1638 31.7537 10.0347 29.9266 10.445 28.9316C11.1686 27.1768 12.9794 26.5454 14.5391 26.3342C15.4916 26.2052 16.9241 26.1127 16.9241 26.1127C16.9241 26.1127 17.0453 28.5664 19.9374 28.7029C23.8745 28.8883 23.6116 26.1127 23.631 26.1127C24.2689 26.1127 27.7406 26.5766 28.6087 27.1425C29.8348 27.9416 30.1972 29.0307 30.2115 30.0313C30.228 31.1833 29.7775 32.4769 29.6282 34.2286Z" fill="#00B998"/>
<path d="M28.9548 42.1021C28.9535 42.1022 28.9521 42.1022 28.9507 42.1021C28.9379 42.101 28.9259 42.0949 28.9176 42.085C28.9092 42.0752 28.9051 42.0624 28.9062 42.0495L29.3508 36.7083C29.3512 36.7018 29.3528 36.6955 29.3557 36.6897C29.3586 36.684 29.3626 36.6789 29.3676 36.6747C29.3725 36.6705 29.3782 36.6674 29.3844 36.6655C29.3906 36.6637 29.3971 36.6631 29.4035 36.6638C29.4163 36.6649 29.4282 36.671 29.4366 36.6809C29.4449 36.6907 29.449 36.7035 29.448 36.7164L29.0034 42.0576C29.0024 42.0698 28.9968 42.0811 28.9878 42.0893C28.9788 42.0975 28.967 42.1021 28.9548 42.1021Z" fill="#0C0C0C"/>
<path d="M37.1123 45.3075L40.8704 33.7555C40.9364 33.5525 41.065 33.3756 41.2377 33.2501C41.4105 33.1247 41.6184 33.0571 41.8319 33.0571H57.1424C57.302 33.0571 57.4593 33.0949 57.6015 33.1674C57.7437 33.2399 57.8667 33.345 57.9605 33.4741C58.0542 33.6032 58.1161 33.7527 58.1411 33.9104C58.166 34.068 58.1533 34.2293 58.1039 34.3811L54.3458 45.9331C54.2798 46.136 54.1512 46.3129 53.9785 46.4384C53.8058 46.5638 53.5978 46.6314 53.3843 46.6314H38.0736C37.914 46.6313 37.7567 46.5935 37.6146 46.521C37.4724 46.4485 37.3494 46.3434 37.2557 46.2143C37.1619 46.0852 37.1001 45.9357 37.0751 45.7781C37.0502 45.6205 37.063 45.4592 37.1123 45.3075Z" fill="#292A2E"/>
<path d="M37.1123 45.3075L40.8704 33.7555C40.9364 33.5525 41.065 33.3756 41.2377 33.2501C41.4105 33.1247 41.6184 33.0571 41.8319 33.0571H57.1424C57.302 33.0571 57.4593 33.0949 57.6015 33.1674C57.7437 33.2399 57.8667 33.345 57.9605 33.4741C58.0542 33.6032 58.1161 33.7527 58.1411 33.9104C58.166 34.068 58.1533 34.2293 58.1039 34.3811L54.3458 45.9331C54.2798 46.136 54.1512 46.3129 53.9785 46.4384C53.8058 46.5638 53.5978 46.6314 53.3843 46.6314H38.0736C37.914 46.6313 37.7567 46.5935 37.6146 46.521C37.4724 46.4485 37.3494 46.3434 37.2557 46.2143C37.1619 46.0852 37.1001 45.9357 37.0751 45.7781C37.0502 45.6205 37.063 45.4592 37.1123 45.3075Z" fill="#292A2E"/>
<path d="M40.1778 45.6948H29.9289C29.6736 45.6948 29.4666 45.9018 29.4666 46.1571V46.169C29.4666 46.4244 29.6736 46.6314 29.9289 46.6314H40.1778C40.4331 46.6314 40.6402 46.4244 40.6402 46.169V46.1571C40.6402 45.9018 40.4331 45.6948 40.1778 45.6948Z" fill="#292A2E"/>
<path d="M40.1778 45.6948H29.9289C29.6736 45.6948 29.4666 45.9018 29.4666 46.1571V46.169C29.4666 46.4244 29.6736 46.6314 29.9289 46.6314H40.1778C40.4331 46.6314 40.6402 46.4244 40.6402 46.169V46.1571C40.6402 45.9018 40.4331 45.6948 40.1778 45.6948Z" fill="#292A2E"/>
<path d="M47.6079 42.0136C48.4948 42.0136 49.2137 41.2946 49.2137 40.4078C49.2137 39.521 48.4948 38.8021 47.6079 38.8021C46.7211 38.8021 46.0022 39.521 46.0022 40.4078C46.0022 41.2946 46.7211 42.0136 47.6079 42.0136Z" fill="white"/>
<path d="M36.2555 42.6013L33.6976 41.7048L34.0649 41.6794C34.1833 41.6688 34.2932 41.6137 34.3725 41.5252C34.4518 41.4367 34.4945 41.3214 34.4921 41.2026C34.4887 41.1414 34.4728 41.0814 34.4455 41.0265C34.4182 40.9715 34.3799 40.9227 34.3331 40.8831C34.2863 40.8434 34.2319 40.8137 34.1732 40.7957C34.1146 40.7777 34.0528 40.7719 33.9918 40.7786L29.4666 41.2594L29.5836 42.7137C29.6201 43.1653 29.7907 43.5958 30.0735 43.9499C30.3563 44.3041 30.7383 44.5657 31.1707 44.7012L33.1304 45.3117C33.2316 45.3453 33.3413 45.343 33.441 45.3051C33.5407 45.2671 33.6243 45.1959 33.6775 45.1035C33.7238 45.0191 33.7419 44.922 33.7292 44.8265C33.7164 44.7311 33.6735 44.6422 33.6066 44.5728C33.6109 44.5698 33.6146 44.5658 33.6173 44.5613C33.6201 44.5567 33.6219 44.5517 33.6226 44.5464C33.6234 44.5412 33.623 44.5358 33.6216 44.5307C33.6202 44.5256 33.6177 44.5208 33.6144 44.5167L33.9753 44.6299C34.088 44.6677 34.2108 44.6614 34.319 44.6121C34.4271 44.5629 34.5126 44.4744 34.558 44.3646C34.5951 44.265 34.5959 44.1554 34.5602 44.0553C34.5245 43.9552 34.4547 43.8708 34.3629 43.8171C34.3671 43.8149 34.3709 43.8118 34.374 43.8082L34.5225 43.8548C34.6237 43.8885 34.7335 43.8861 34.8332 43.8482C34.9329 43.8103 35.0164 43.7391 35.0696 43.6466C35.1258 43.5441 35.1401 43.4238 35.1096 43.3109C35.079 43.1981 35.0059 43.1015 34.9057 43.0413C34.9065 43.0383 34.907 43.0353 34.9071 43.0322L35.9723 43.4056C36.0789 43.443 36.1961 43.4364 36.2979 43.3875C36.3998 43.3385 36.478 43.251 36.5154 43.1444C36.5527 43.0377 36.5462 42.9206 36.4973 42.8187C36.4483 42.7169 36.3608 42.6387 36.2542 42.6013H36.2555Z" fill="#E98862"/>
<path opacity="0.2" d="M34.8666 43.0737C34.8616 43.0738 34.8567 43.0729 34.852 43.0712L33.8216 42.697C33.8111 42.6931 33.8025 42.6852 33.7977 42.675C33.793 42.6648 33.7925 42.6531 33.7964 42.6425C33.8003 42.632 33.8082 42.6234 33.8184 42.6186C33.8287 42.6139 33.8403 42.6134 33.8509 42.6173L34.8812 42.9919C34.8906 42.9953 34.8985 43.0019 34.9035 43.0105C34.9085 43.0192 34.9103 43.0293 34.9086 43.0391C34.9068 43.049 34.9017 43.0579 34.8941 43.0643C34.8864 43.0707 34.8768 43.0742 34.8668 43.0742L34.8666 43.0737Z" fill="#0A0A0A"/>
<path opacity="0.2" d="M34.3457 43.8229C34.3408 43.8229 34.3361 43.8221 34.3315 43.8205L33.5193 43.5323C33.5141 43.5305 33.5092 43.5276 33.5051 43.5238C33.501 43.5201 33.4976 43.5156 33.4952 43.5106C33.4928 43.5055 33.4914 43.5001 33.4911 43.4945C33.4909 43.489 33.4917 43.4834 33.4935 43.4781C33.4954 43.4729 33.4983 43.4681 33.502 43.4639C33.5057 43.4598 33.5103 43.4564 33.5153 43.454C33.5203 43.4516 33.5258 43.4502 33.5313 43.4499C33.5369 43.4497 33.5425 43.4505 33.5477 43.4523L34.3599 43.7405C34.3693 43.7438 34.3773 43.7504 34.3824 43.7591C34.3874 43.7677 34.3893 43.7778 34.3875 43.7877C34.3858 43.7976 34.3807 43.8065 34.373 43.813C34.3654 43.8194 34.3557 43.8229 34.3457 43.8229Z" fill="#0A0A0A"/>
<path opacity="0.2" d="M33.5811 44.5831C33.5759 44.5831 33.5707 44.5821 33.5659 44.5802L33.1854 44.4352C33.18 44.4334 33.175 44.4305 33.1707 44.4267C33.1664 44.4229 33.1629 44.4183 33.1605 44.4131C33.158 44.4079 33.1566 44.4023 33.1564 44.3966C33.1562 44.3908 33.1571 44.3851 33.1592 44.3798C33.1612 44.3744 33.1643 44.3695 33.1683 44.3654C33.1723 44.3613 33.1771 44.358 33.1823 44.3558C33.1876 44.3536 33.1933 44.3525 33.199 44.3525C33.2047 44.3525 33.2104 44.3537 33.2157 44.356L33.5961 44.501C33.6053 44.5046 33.6131 44.5113 33.6179 44.5199C33.6227 44.5285 33.6244 44.5386 33.6226 44.5483C33.6208 44.5581 33.6157 44.5669 33.6081 44.5732C33.6005 44.5795 33.5909 44.583 33.581 44.5831H33.5811Z" fill="#0A0A0A"/>
<path d="M31.4694 40.3989L20.7391 40.3916L16.6798 30.4892L10.6241 33.0352L15.689 44.7878L15.7385 44.9048C15.9863 45.4761 16.4037 45.9574 16.9341 46.2835C17.4645 46.6097 18.0824 46.7649 18.704 46.7282L31.6319 45.9644L31.4694 40.3989Z" fill="#00B998"/>
<path d="M18.5261 46.7821C17.9246 46.7811 17.3364 46.6048 16.8334 46.2749C16.3304 45.9449 15.9344 45.4756 15.6938 44.9242L15.6442 44.8072L11.3286 34.7929L11.4182 34.7544L15.7835 44.8858C16.0284 45.4469 16.4394 45.9196 16.961 46.2403C17.4826 46.561 18.0899 46.7143 18.7012 46.6795L31.5818 45.9186L31.4223 40.4478L20.7066 40.4407L17.5851 32.8267L17.6753 32.7898L20.7719 40.3431L31.5168 40.3504L31.6819 46.0105L31.6346 46.0133L18.7068 46.7771C18.6464 46.7804 18.5862 46.7821 18.5261 46.7821Z" fill="#0C0C0C"/>
<path d="M83.0139 47.5661L82.8198 47.5857L86.9322 88.2975L87.1263 88.2779L83.0139 47.5661Z" fill="#494949"/>
<path d="M6.59081 47.5666L2.47559 88.2782L2.66969 88.2978L6.78492 47.5863L6.59081 47.5666Z" fill="#494949"/>
<path d="M23.5933 47.5666L19.478 88.2781L19.6721 88.2977L23.7874 47.5862L23.5933 47.5666Z" fill="#494949"/>
<path d="M100.016 47.5661L99.8223 47.5857L103.935 88.2975L104.129 88.2779L100.016 47.5661Z" fill="#494949"/>
<path d="M103.725 46.7769H3.15185C2.7104 46.7769 2.35254 47.1347 2.35254 47.5762C2.35254 48.0176 2.7104 48.3754 3.15185 48.3754H103.725C104.166 48.3754 104.524 48.0176 104.524 47.5762C104.524 47.1347 104.166 46.7769 103.725 46.7769Z" fill="#292A2E"/>
<path opacity="0.8" d="M103.725 46.7769H3.15185C2.7104 46.7769 2.35254 47.1347 2.35254 47.5762C2.35254 48.0176 2.7104 48.3754 3.15185 48.3754H103.725C104.166 48.3754 104.524 48.0176 104.524 47.5762C104.524 47.1347 104.166 46.7769 103.725 46.7769Z" fill="white"/>
<path d="M103.725 48.4728H3.15231C3.03375 48.474 2.91612 48.4518 2.80623 48.4073C2.69634 48.3627 2.59637 48.2969 2.51209 48.2135C2.42782 48.1301 2.36092 48.0308 2.31526 47.9214C2.2696 47.812 2.24609 47.6946 2.24609 47.576C2.24609 47.4574 2.2696 47.34 2.31526 47.2306C2.36092 47.1212 2.42782 47.0219 2.51209 46.9385C2.59637 46.8551 2.69634 46.7893 2.80623 46.7447C2.91612 46.7002 3.03375 46.678 3.15231 46.6792H103.725C103.961 46.6817 104.187 46.7772 104.353 46.9451C104.519 47.1131 104.612 47.3398 104.612 47.576C104.612 47.8122 104.519 48.0389 104.353 48.2069C104.187 48.3748 103.961 48.4703 103.725 48.4728ZM3.15231 46.8743C3.05946 46.8732 2.96732 46.8905 2.88122 46.9253C2.79513 46.9601 2.71679 47.0116 2.65075 47.0769C2.5847 47.1421 2.53227 47.2199 2.49648 47.3055C2.4607 47.3912 2.44227 47.4831 2.44227 47.576C2.44227 47.6689 2.4607 47.7608 2.49648 47.8465C2.53227 47.9321 2.5847 48.0099 2.65075 48.0751C2.71679 48.1404 2.79513 48.1919 2.88122 48.2267C2.96732 48.2615 3.05946 48.2788 3.15231 48.2777H103.725C103.91 48.2755 104.086 48.2006 104.216 48.0693C104.346 47.9379 104.418 47.7607 104.418 47.576C104.418 47.3913 104.346 47.2141 104.216 47.0827C104.086 46.9514 103.91 46.8765 103.725 46.8743H3.15231Z" fill="#292A2E"/>
<path d="M103.725 46.7769H20.8043C20.3629 46.7769 20.005 47.1347 20.005 47.5762C20.005 48.0176 20.3629 48.3754 20.8043 48.3754H103.725C104.166 48.3754 104.524 48.0176 104.524 47.5762C104.524 47.1347 104.166 46.7769 103.725 46.7769Z" fill="white"/>
<path d="M103.725 48.4729H20.8045C20.5683 48.4704 20.3426 48.3749 20.1764 48.2069C20.0102 48.039 19.917 47.8123 19.917 47.5761C19.917 47.3398 20.0102 47.1131 20.1764 46.9452C20.3426 46.7773 20.5683 46.6817 20.8045 46.6793H103.725C103.961 46.6817 104.187 46.7773 104.353 46.9452C104.519 47.1131 104.613 47.3398 104.613 47.5761C104.613 47.8123 104.519 48.039 104.353 48.2069C104.187 48.3749 103.961 48.4704 103.725 48.4729ZM20.8045 46.8744C20.6198 46.8765 20.4435 46.9514 20.3136 47.0828C20.1838 47.2141 20.111 47.3914 20.111 47.5761C20.111 47.7608 20.1838 47.938 20.3136 48.0694C20.4435 48.2007 20.6198 48.2756 20.8045 48.2778H103.725C103.91 48.2756 104.086 48.2007 104.216 48.0694C104.346 47.938 104.419 47.7608 104.419 47.5761C104.419 47.3914 104.346 47.2141 104.216 47.0828C104.086 46.9514 103.91 46.8765 103.725 46.8744H20.8045Z" fill="#292A2E"/>
</svg>
